<?xml version="1.0" standalone="no"?>
<!DOCTYPE svg PUBLIC "-//W3C//DTD SVG 20010904//EN"
 "http://www.w3.org/TR/2001/REC-SVG-20010904/DTD/svg10.dtd">
<svg version="1.0" xmlns="http://www.w3.org/2000/svg"
 width="512.000000pt" height="512.000000pt" viewBox="0 0 512.000000 512.000000"
 preserveAspectRatio="xMidYMid meet">
<metadata>
Created by potrace 1.16, written by Peter Selinger 2001-2019
</metadata>
<g transform="translate(0.000000,512.000000) scale(0.100000,-0.100000)"
fill="#fff" stroke="none">
<path d="M0 5110 c0 -5 4 -10 9 -10 6 0 13 5 16 10 3 6 -1 10 -9 10 -9 0 -16
-4 -16 -10z"/>
<path d="M60 5095 c-19 -13 -41 -24 -47 -24 -8 -1 -13 -14 -13 -32 0 -34 -2
-35 80 24 77 55 78 57 45 56 -17 0 -46 -11 -65 -24z"/>
<path d="M113 5042 l-113 -76 0 -44 0 -43 133 91 c72 49 148 104 167 120 l35
29 -55 0 c-52 0 -62 -5 -167 -77z"/>
<path d="M730 5078 c-14 -31 -20 -66 -20 -126 l0 -83 -46 -19 c-25 -11 -48
-20 -50 -20 -3 0 3 15 12 33 26 49 33 94 22 135 -19 70 -84 117 -119 86 -26
-24 -24 -64 6 -104 14 -19 25 -39 25 -46 0 -7 -16 -26 -36 -42 -48 -40 -474
-262 -502 -262 -12 0 -22 -6 -22 -14 0 -18 53 2 245 92 172 80 273 136 311
173 36 34 49 27 39 -22 -8 -38 -15 -41 -220 -134 -224 -100 -314 -144 -348
-167 l-27 -19 0 -145 0 -144 35 17 c43 20 49 36 30 74 -42 80 -43 77 41 115
42 19 203 85 358 147 154 62 283 113 287 115 9 4 31 -50 22 -58 -4 -4 -48 -24
-98 -43 -49 -19 -155 -60 -234 -91 -177 -70 -317 -141 -338 -173 -10 -15 -14
-35 -10 -58 6 -34 4 -36 -44 -56 -27 -12 -49 -28 -49 -35 0 -9 44 8 131 51
l130 66 -3 -52 -3 -51 -115 -70 c-63 -38 -121 -76 -127 -85 -16 -21 0 -43 31
-43 25 0 104 35 127 56 14 12 18 13 28 0 9 -11 4 -18 -31 -38 -24 -14 -71 -36
-105 -49 -62 -23 -63 -25 -63 -61 l0 -37 79 33 c110 48 142 65 170 93 13 13
63 42 110 64 91 42 121 64 121 86 0 27 -29 23 -106 -15 l-79 -38 0 110 0 111
175 76 c171 73 197 92 168 117 -10 8 -54 -7 -172 -59 -155 -67 -186 -77 -186
-61 0 4 124 59 276 122 152 63 278 119 281 123 3 5 -4 18 -14 30 -81 92 -107
262 -59 380 23 55 23 57 4 57 -13 0 -25 -14 -38 -42z m-7 -275 c3 -16 2 -31
-1 -35 -4 -3 -90 -42 -192 -86 -102 -44 -240 -105 -307 -135 -80 -36 -123 -50
-123 -42 0 7 -2 20 -5 28 -4 10 54 41 217 117 123 57 257 121 298 142 91 45
106 47 113 11z"/>
<path d="M1295 5060 c-66 -32 -120 -58 -121 -57 -1 1 -6 16 -11 32 -7 22 -17
31 -37 33 -27 3 -28 2 -21 -30 8 -40 105 -332 146 -439 16 -42 38 -84 49 -94
11 -10 20 -22 20 -26 0 -10 -199 -110 -299 -150 -46 -18 -80 -34 -74 -36 26
-9 493 111 584 149 81 35 139 111 139 185 0 33 6 42 40 66 54 38 212 188 205
195 -3 3 -13 -2 -23 -11 -27 -25 -32 -21 -32 25 0 36 6 46 43 80 23 22 54 46
70 54 15 8 27 17 27 19 0 12 -31 3 -64 -20 -45 -31 -45 -24 0 32 20 24 33 47
30 50 -10 10 -54 -37 -101 -108 -41 -62 -83 -99 -220 -196 l-30 -21 -28 20
-28 20 103 67 c104 68 173 133 202 190 27 51 -6 39 -40 -15 -32 -51 -90 -98
-210 -172 -87 -54 -95 -54 -141 -6 -12 13 -34 26 -49 30 -36 9 -106 -10 -152
-41 l-37 -25 -11 27 c-26 61 -27 60 106 126 99 49 126 67 128 85 5 35 -29 27
-163 -38z m530 -182 c-8 -48 -34 -81 -108 -135 -51 -38 -51 -38 -77 9 -9 14 0
24 47 57 32 21 76 55 98 75 22 19 42 35 43 36 2 0 1 -19 -3 -42z m-400 5 c0
-7 -36 -31 -80 -53 -59 -29 -81 -37 -87 -27 -15 24 -2 41 52 69 55 30 115 35
115 11z m83 -89 c44 -30 14 -84 -47 -84 -20 0 -51 -9 -69 -20 -41 -25 -64 -25
-86 -1 -28 31 -15 53 52 88 70 36 116 41 150 17z"/>
<path d="M1520 5112 c0 -5 13 -21 29 -36 55 -53 156 -42 215 23 l19 21 -131 0
c-73 0 -132 -4 -132 -8z"/>
<path d="M2114 5052 c-99 -86 -113 -121 -22 -58 35 24 96 60 136 80 39 20 72
38 72 41 0 3 -24 5 -54 5 -52 0 -56 -2 -132 -68z"/>
<path d="M2245 5033 c-180 -96 -231 -129 -286 -184 -41 -41 -83 -113 -76 -132
2 -7 11 2 20 19 8 16 47 60 85 95 59 57 98 80 280 173 117 59 212 109 212 111
0 3 -17 5 -37 5 -28 -1 -80 -23 -198 -87z"/>
<path d="M2640 5092 c-89 -52 -416 -195 -442 -194 -16 1 -28 -3 -28 -8 0 -5
-42 -40 -92 -78 -51 -38 -120 -93 -154 -123 -33 -30 -74 -65 -91 -77 -30 -21
-30 -21 -48 -2 -10 11 -28 20 -41 20 -42 0 -60 -70 -24 -92 27 -17 25 -29 -7
-60 -68 -63 -204 -125 -403 -183 -123 -35 -428 -101 -435 -93 -3 3 4 31 15 63
24 69 23 62 6 68 -11 4 -20 -13 -36 -64 -15 -50 -25 -69 -38 -69 -34 0 -472
-176 -522 -209 -14 -10 -87 -39 -162 -67 l-138 -49 0 -42 0 -42 156 54 c86 30
163 60 171 67 9 7 13 24 11 44 l-4 32 216 85 c118 47 222 89 230 92 11 4 15
-2 17 -22 0 -16 4 -40 8 -54 6 -24 3 -27 -78 -58 -80 -31 -86 -32 -109 -17
-53 35 -113 -24 -86 -82 l13 -27 -270 -90 -270 -90 -3 -42 -3 -42 48 14 c26 8
88 30 138 50 49 19 93 35 96 35 11 0 28 -115 19 -118 -5 -2 -25 -16 -45 -32
-21 -16 -66 -45 -101 -65 -35 -19 -66 -40 -69 -45 -4 -6 -17 -2 -32 10 -45 35
-53 28 -53 -51 0 -61 2 -70 17 -67 9 2 29 21 44 42 35 52 172 136 178 109 1
-10 10 -25 18 -34 13 -15 6 -22 -64 -71 -43 -30 -104 -72 -135 -92 -37 -24
-58 -45 -58 -57 0 -10 3 -19 8 -19 4 0 59 38 123 83 102 73 244 157 264 157 4
0 -8 -18 -27 -41 -18 -22 -42 -54 -54 -69 -11 -16 -48 -44 -82 -62 -34 -18
-100 -61 -147 -96 l-85 -63 0 -73 c0 -41 5 -77 12 -84 8 -8 8 -15 -2 -26 -14
-17 -6 -51 10 -41 14 9 12 -5 -5 -35 -8 -14 -14 -42 -15 -63 l0 -37 38 23 c52
33 67 81 53 167 -6 35 -9 65 -8 65 1 1 31 26 67 55 55 45 65 50 68 34 10 -76
31 -144 74 -238 44 -96 50 -117 50 -176 0 -115 -36 -206 -123 -317 -64 -80
-115 -124 -135 -116 -13 5 -14 0 -9 -30 11 -55 -2 -89 -40 -115 -25 -16 -35
-30 -35 -48 l0 -26 40 32 40 32 11 -29 c8 -22 7 -34 -6 -60 -11 -20 -15 -41
-11 -57 5 -22 0 -30 -33 -53 -33 -23 -40 -34 -41 -61 l0 -33 57 40 c56 41 73
48 73 33 0 -5 -29 -26 -65 -47 l-65 -38 0 -48 0 -49 68 37 c37 20 88 51 115
70 26 18 56 33 67 33 31 0 70 44 70 78 0 26 11 36 108 96 59 37 148 93 197
125 98 64 110 62 77 -13 -14 -31 -33 -53 -64 -71 -23 -15 -55 -35 -70 -45 -22
-16 -27 -17 -32 -5 -3 8 -12 15 -20 15 -17 0 -31 -41 -23 -64 4 -9 -18 -28
-64 -55 -39 -23 -129 -88 -202 -144 -73 -57 -152 -116 -177 -133 -39 -25 -45
-35 -48 -68 l-3 -39 48 28 c85 50 267 172 296 199 l28 26 8 -22 c7 -20 -8 -32
-182 -138 -105 -64 -193 -123 -195 -130 -3 -8 1 -11 10 -8 8 3 25 -3 39 -13
32 -24 42 -24 29 2 -7 11 -9 26 -7 33 3 7 63 45 134 84 70 40 143 81 160 93
26 16 34 18 38 7 17 -47 55 -163 55 -170 0 -4 -17 -16 -38 -27 -88 -45 -126
-129 -83 -182 12 -14 16 -29 11 -39 -4 -8 -15 -40 -24 -70 -27 -96 -82 -150
-244 -240 -45 -25 -82 -51 -82 -57 0 -7 2 -13 5 -13 12 0 93 44 157 86 132 85
188 156 203 257 7 44 9 47 37 47 38 0 80 22 112 60 32 39 34 93 6 174 -10 31
-15 54 -10 51 6 -4 10 -12 10 -20 0 -7 11 -27 25 -43 14 -17 25 -37 25 -45 0
-24 20 -31 37 -14 12 11 21 12 42 4 34 -13 75 -3 102 24 20 20 21 40 6 79 -4
10 5 22 26 35 51 32 50 93 -2 115 -25 10 -36 9 -75 -8 -25 -12 -66 -35 -91
-52 -50 -34 -60 -33 -68 7 -4 24 4 37 71 99 77 72 88 98 32 77 -48 -18 -35 4
26 43 59 38 85 79 99 156 7 35 11 38 103 79 144 63 326 155 341 173 11 13 11
19 1 31 -11 13 -16 11 -43 -11 -33 -28 -43 -21 -33 21 4 15 29 40 65 65 61 41
77 57 67 67 -5 5 -33 -12 -103 -63 -21 -15 -21 -15 -28 43 -9 82 -26 143 -40
143 -9 0 -9 -11 1 -51 8 -29 11 -55 8 -60 -3 -5 -35 -28 -73 -52 -55 -36 -70
-52 -84 -88 -18 -46 -15 -44 -169 -107 -4 -2 -8 9 -8 25 0 16 -7 39 -16 52
l-16 23 -22 -38 c-15 -28 -46 -54 -106 -91 -50 -30 -87 -48 -89 -41 -2 6 8 20
23 30 18 14 26 29 26 49 0 26 6 33 47 50 27 12 58 32 69 46 20 24 23 24 45 10
13 -9 42 -19 65 -22 34 -6 45 -3 71 19 35 30 53 75 92 236 l26 105 110 57 c61
31 122 62 138 67 42 16 35 -11 -13 -43 -49 -32 -51 -46 -7 -46 45 0 77 34 77
83 0 34 4 39 50 62 27 14 52 25 55 25 3 0 -2 -14 -10 -31 -9 -17 -15 -42 -13
-57 4 -24 5 -25 12 -7 16 42 79 165 83 162 3 -3 12 -55 29 -154 l5 -33 -49 0
c-156 0 -102 -181 56 -184 28 -1 46 4 52 14 14 22 12 88 -6 191 -20 117 -18
129 27 144 l36 13 -15 -73 c-15 -69 -15 -74 4 -106 15 -25 28 -35 50 -37 41
-4 57 18 58 76 1 46 2 48 51 73 27 14 51 33 53 42 4 22 -10 21 -59 -4 -23 -11
-43 -18 -46 -15 -3 3 -6 22 -7 41 l-1 37 90 39 c103 44 115 46 115 20 0 -29
25 -45 50 -31 12 6 29 10 38 8 12 -3 4 -11 -25 -26 -33 -17 -43 -28 -43 -47 0
-15 6 -25 14 -25 15 0 125 49 460 204 126 58 232 106 237 106 13 0 32 -41 22
-50 -4 -5 -86 -47 -182 -95 -136 -67 -180 -85 -201 -80 -20 5 -35 0 -58 -20
-29 -24 -293 -148 -405 -190 -26 -10 -46 -23 -44 -29 10 -28 183 20 346 95 84
39 85 39 119 23 33 -15 36 -15 61 3 15 12 27 32 29 49 3 26 17 36 144 104 77
41 149 83 159 93 18 16 19 16 19 -17 0 -50 33 -86 79 -86 20 0 47 7 59 16 47
33 19 -7 -44 -63 -87 -77 -95 -81 -81 -43 14 38 0 52 -22 20 -61 -91 -107
-144 -160 -179 l-61 -41 -6 24 c-10 41 3 60 102 155 82 79 93 94 84 111 -12
22 -44 16 -36 -7 11 -27 -42 -61 -255 -166 -225 -111 -271 -139 -263 -161 8
-20 -26 -29 -46 -11 -34 31 -80 12 -80 -32 0 -13 -6 -23 -13 -23 -7 0 -46 -16
-87 -36 -41 -20 -97 -45 -125 -54 -27 -10 -51 -23 -53 -30 -6 -17 39 -3 164
52 87 37 118 47 143 42 26 -5 38 -2 59 18 15 14 59 45 97 70 95 60 95 60 95
54 0 -3 -21 -19 -47 -37 -27 -18 -61 -44 -76 -58 -70 -63 -108 -205 -91 -331
l10 -71 -83 -47 c-204 -115 -390 -226 -411 -246 -13 -11 -31 -34 -39 -50 -21
-41 -98 -121 -163 -171 -72 -54 -81 -60 -74 -41 3 8 34 32 68 55 115 74 188
183 190 283 1 26 5 48 9 48 16 0 249 163 301 211 84 77 110 155 65 200 -32 32
-102 20 -213 -35 l-89 -45 -41 22 c-32 17 -59 22 -118 22 -76 0 -77 0 -82 29
-4 16 -5 30 -4 32 2 1 37 -2 78 -6 106 -12 199 3 287 46 86 43 111 67 93 89
-7 8 -23 15 -36 15 -27 0 -32 -15 -9 -24 27 -10 16 -23 -48 -54 -90 -45 -152
-56 -265 -47 -82 6 -98 10 -117 31 -12 13 -25 24 -27 24 -3 0 7 -46 21 -102
25 -97 29 -104 66 -129 128 -87 264 -131 294 -95 19 23 5 65 -35 103 l-36 33
85 41 c89 42 152 57 177 40 20 -14 16 -74 -10 -115 -25 -42 -64 -74 -229 -188
-93 -64 -129 -84 -141 -78 -25 14 -63 -11 -74 -48 -12 -43 -2 -50 36 -28 l31
19 -7 -42 c-3 -23 -12 -51 -19 -62 -16 -26 -86 -71 -172 -110 -39 -17 -81 -41
-93 -52 -31 -29 -81 -120 -128 -237 -32 -78 -50 -107 -103 -162 -35 -38 -60
-68 -56 -68 16 0 168 96 225 142 l59 48 17 -25 c13 -20 44 -35 44 -22 0 2 -5
29 -11 61 -18 99 -13 105 129 200 70 46 186 118 257 161 148 87 182 111 173
120 -3 3 -59 -27 -124 -68 -66 -41 -130 -80 -144 -87 -51 -25 -2 10 130 93
121 77 198 137 175 137 -4 0 -28 -12 -52 -26 -68 -39 -62 -22 9 28 78 54 238
151 242 147 6 -9 46 -96 46 -102 0 -3 -20 -20 -45 -37 -36 -25 -49 -29 -60
-20 -11 9 -22 6 -52 -16 -69 -50 -93 -77 -94 -103 0 -22 -12 -32 -80 -66 -44
-22 -87 -47 -96 -57 -15 -17 -15 -18 3 -19 14 0 11 -3 -9 -11 -15 -5 -26 -15
-24 -22 5 -11 11 -12 38 -1 11 4 22 -3 32 -19 17 -25 16 -25 -46 -68 -34 -24
-67 -47 -73 -51 -7 -4 -22 20 -39 66 -28 71 -29 71 -37 41 -6 -24 -32 -50
-112 -110 -94 -71 -139 -114 -119 -114 5 0 58 38 118 84 l110 84 13 -36 c15
-44 4 -59 -69 -93 -29 -14 -49 -30 -49 -40 0 -9 -46 -51 -102 -94 -100 -76
-104 -78 -155 -76 -63 2 -118 -23 -161 -75 -63 -76 -60 -157 9 -299 49 -103
113 -187 191 -253 58 -49 156 -107 165 -98 2 2 -20 27 -50 55 -62 59 -102 126
-117 199 -13 60 5 150 43 215 23 38 248 217 274 217 7 0 24 -23 39 -51 l26
-52 -40 -40 -40 -40 -16 32 c-19 36 -41 42 -30 9 3 -13 10 -30 14 -37 10 -19
-23 -64 -119 -164 -72 -74 -75 -79 -57 -93 11 -8 23 -14 26 -14 4 0 35 25 70
55 58 51 64 53 84 40 31 -22 74 -18 101 10 14 13 25 29 25 35 0 21 -30 69 -57
90 l-28 22 48 40 c26 22 47 46 47 54 0 8 -14 42 -30 75 -17 33 -28 64 -25 69
9 15 241 200 251 200 5 0 42 -101 81 -224 91 -279 133 -390 144 -379 5 5 5 23
0 41 -9 30 -8 32 15 32 37 0 97 34 132 75 40 45 44 110 10 174 -25 45 -147
201 -158 201 -4 0 -10 -21 -14 -47 -3 -27 -16 -76 -28 -110 l-22 -63 -33 111
c-19 62 -33 113 -31 114 2 2 71 36 153 75 131 63 174 81 283 121 22 8 22 10 8
38 -24 46 -73 81 -112 81 -33 0 -240 -87 -274 -114 -8 -7 -36 -25 -62 -40 -35
-20 -48 -23 -48 -13 0 22 10 28 205 128 99 51 200 105 224 119 40 26 46 27 90
16 47 -13 64 -37 42 -59 -20 -20 -11 -65 22 -109 93 -121 194 -115 188 11 -1
15 -18 41 -46 67 -30 28 -54 63 -71 104 -14 34 -23 64 -20 67 2 2 29 -7 59
-21 29 -14 62 -26 73 -26 10 0 35 -10 54 -22 41 -26 96 -48 199 -80 l73 -23
-5 -45 c-3 -25 -14 -69 -23 -98 -15 -45 -15 -55 -4 -62 25 -15 40 10 40 66 0
30 2 54 4 54 2 0 17 -7 32 -15 36 -19 64 -19 64 -1 0 8 -16 15 -41 19 -50 7
-52 9 -44 45 6 28 8 29 83 36 42 3 89 9 103 12 23 5 27 2 31 -25 4 -27 1 -31
-24 -36 -49 -11 -60 -67 -16 -81 11 -3 35 -3 54 1 35 6 46 -9 23 -32 -13 -13
-4 -33 16 -33 7 0 27 16 44 37 30 36 30 36 133 44 57 5 154 21 216 37 l112 30
0 -52 c0 -28 -4 -56 -8 -62 -7 -11 -103 -44 -242 -84 -78 -23 -110 -40 -73
-40 18 0 217 54 278 75 19 7 19 6 -1 -8 -12 -9 -31 -36 -42 -60 -18 -39 -26
-45 -60 -51 -42 -6 -72 -31 -56 -46 5 -5 28 -5 54 0 26 5 49 5 54 0 11 -11 9
-11 -97 -40 -98 -26 -147 -46 -147 -60 0 -13 10 -11 190 34 l125 31 -3 -30
c-2 -19 -12 -35 -25 -40 -31 -15 -44 -41 -31 -62 30 -48 84 -8 84 61 l0 44 63
11 c89 15 109 14 105 -6 -2 -10 -14 -17 -32 -18 -34 -1 -58 -30 -54 -65 2 -19
10 -26 31 -28 41 -5 64 21 72 79 4 27 11 52 17 55 12 7 204 33 491 65 89 10
119 21 103 36 -5 6 -254 -12 -328 -24 -34 -5 -36 -4 -31 16 3 11 13 21 22 21
9 1 47 5 85 10 72 9 98 22 79 41 -7 7 -34 7 -93 -1 -45 -6 -83 -10 -85 -8 -5
5 17 193 23 199 4 4 17 10 30 14 21 6 22 3 22 -40 0 -109 92 -176 179 -130 60
30 91 154 71 278 l-11 68 36 49 c41 56 47 85 10 50 l-25 -23 0 24 c0 43 30
128 52 149 28 26 158 72 350 124 207 57 239 78 204 137 -17 29 -17 30 13 60
28 28 31 36 31 95 0 35 -3 64 -7 64 -4 0 -16 -9 -28 -20 -13 -12 -112 -47
-251 -89 -126 -38 -248 -77 -271 -85 -24 -8 -43 -12 -43 -7 0 18 49 50 100 66
141 44 413 162 405 176 -5 7 -217 -76 -290 -113 -16 -9 -63 -26 -102 -38 -80
-24 -120 -50 -134 -87 -5 -13 -13 -21 -19 -18 -5 3 -10 0 -10 -8 0 -8 -7 -18
-16 -21 -24 -9 -27 -8 -21 14 9 36 -21 22 -39 -19 -14 -33 -25 -41 -70 -57
-29 -10 -56 -15 -60 -11 -4 4 -10 23 -13 44 -9 52 -36 59 -28 7 3 -22 3 -33 0
-26 -2 6 -9 12 -14 12 -16 0 -10 -29 11 -48 19 -18 20 -24 9 -93 -6 -41 -18
-94 -26 -117 -8 -24 -12 -47 -9 -50 4 -3 36 15 73 41 37 26 68 45 70 44 1 -2
-2 -19 -7 -38 -8 -27 -25 -44 -87 -85 -136 -89 -129 -87 -483 -130 l-145 -17
-38 38 -39 39 7 92 c7 91 8 92 35 98 20 4 43 25 78 70 36 48 52 62 63 55 19
-12 111 -11 144 1 l26 10 -3 -88 -3 -87 -30 3 c-40 3 -112 -25 -130 -51 -38
-54 -3 -107 70 -107 59 0 103 23 120 63 7 18 21 121 31 230 20 220 17 235 -34
206 -22 -12 -26 -22 -24 -47 2 -30 -2 -34 -50 -55 -73 -33 -112 -42 -106 -25
13 34 48 148 59 188 10 41 12 43 20 22 11 -28 33 -24 37 6 3 20 -7 27 -31 23
-5 -1 -6 3 -2 9 3 5 17 10 30 10 48 0 70 50 32 74 -13 8 -23 7 -43 -4 -35 -20
-46 -45 -83 -180 -31 -112 -66 -184 -117 -244 l-25 -28 -23 21 c-51 48 -60 30
-72 -146 -4 -56 -9 -105 -13 -110 -10 -14 -133 -70 -201 -92 -111 -36 -236
-60 -312 -60 -60 -1 -67 5 -52 43 5 12 21 16 73 16 120 0 248 48 342 128 57
49 124 142 143 200 9 26 32 62 52 82 44 43 78 99 103 173 38 110 161 272 258
338 38 27 265 119 292 119 6 0 11 -3 11 -7 0 -19 -70 -452 -79 -493 -14 -62
-13 -80 4 -80 8 0 15 2 15 3 0 2 15 89 34 193 19 104 42 244 52 312 19 129 20
131 86 171 l36 21 -23 -72 c-13 -40 -29 -131 -36 -203 -19 -192 -19 -204 12
-227 57 -43 129 11 129 97 l0 39 38 -37 c118 -115 245 -22 187 138 -23 64 -20
79 13 70 15 -4 76 -9 136 -11 59 -1 110 -5 112 -7 2 -2 -3 -20 -11 -41 -14
-33 -14 -37 1 -43 22 -8 80 11 144 50 55 33 55 34 58 86 l3 53 -28 -20 c-43
-30 -73 -44 -73 -34 0 5 22 25 50 43 l49 34 1 73 c0 41 -4 72 -10 72 -18 0
-51 -41 -48 -58 2 -11 -15 -30 -51 -55 l-54 -38 -71 11 c-39 6 -85 13 -103 16
-28 4 -32 9 -38 45 -13 75 10 134 83 211 55 58 193 182 264 236 37 29 -18 -54
-65 -97 -46 -43 -61 -81 -32 -81 9 0 19 8 22 18 9 25 45 72 55 72 4 0 8 -15 8
-33 0 -24 -8 -41 -30 -62 -37 -36 -40 -82 -7 -112 51 -46 95 -30 66 24 -11 21
-11 27 -1 30 9 4 12 41 12 144 0 76 -3 139 -7 139 -11 0 -195 -153 -281 -234
-112 -106 -143 -172 -123 -259 7 -31 6 -37 -4 -33 -64 24 -146 12 -166 -26 -9
-17 -13 -18 -20 -7 -18 29 -7 50 57 119 37 39 64 73 61 77 -8 8 -93 -62 -114
-94 -19 -29 -33 -15 -33 35 0 27 8 38 56 75 213 161 304 241 304 268 0 78
-166 33 -380 -103 -104 -65 -131 -90 -117 -105 4 -3 24 2 47 11 50 20 60 20
60 2 0 -16 -44 -25 -150 -29 -56 -2 -65 -5 -68 -22 -6 -29 -27 -51 -127 -125
-49 -37 -106 -84 -125 -104 l-34 -36 -101 6 c-110 6 -206 -12 -312 -60 -29
-14 -53 -22 -53 -18 0 12 92 98 120 113 14 7 63 16 110 19 l85 6 -45 13 c-43
13 -102 7 -155 -15 -18 -7 -19 -6 -6 10 17 20 56 42 112 61 39 14 39 14 54
-16 35 -66 106 -56 145 21 15 30 26 40 45 40 61 0 255 94 415 200 187 125 377
213 455 211 48 -1 241 41 278 60 17 10 26 79 10 79 -5 0 -53 -11 -108 -24 -55
-14 -149 -36 -209 -50 -81 -19 -140 -41 -228 -86 -132 -66 -163 -76 -100 -30
46 33 49 41 26 64 -9 10 -16 36 -17 63 -2 46 -1 48 41 71 24 13 45 22 48 19 3
-3 8 -29 11 -59 l5 -55 -31 -6 c-32 -7 -41 -24 -18 -33 8 -3 26 0 40 5 26 10
27 13 27 88 l0 78 104 97 104 97 6 -41 c5 -29 3 -44 -6 -49 -37 -21 -98 -70
-98 -79 0 -11 48 11 92 42 l28 19 10 -26 c13 -35 15 -32 -25 -45 -32 -10 -74
-65 -60 -78 3 -3 38 2 78 11 39 9 120 26 180 38 l107 22 0 63 0 62 -102 -39
c-55 -22 -105 -38 -111 -36 -5 1 40 22 102 46 99 38 111 45 111 67 0 13 -3 24
-6 24 -4 0 -49 -18 -100 -40 -52 -22 -95 -40 -96 -40 -2 0 -3 28 -2 63 l0 62
102 44 c75 33 102 49 102 62 0 15 -18 10 -114 -35 -83 -40 -117 -51 -130 -44
-29 16 -71 6 -74 -19 -5 -32 -177 -193 -260 -243 -66 -39 -75 -42 -97 -30 -27
15 -55 7 -55 -15 0 -8 -4 -15 -10 -15 -5 0 -10 9 -10 19 0 15 27 33 116 76
116 56 116 56 300 237 109 107 188 178 193 172 5 -5 11 -18 15 -29 4 -17 -9
-28 -86 -70 -53 -29 -84 -51 -75 -53 9 -2 56 19 104 46 49 27 98 52 111 57 21
6 23 11 17 43 -5 34 -3 39 25 54 40 23 40 43 -1 23 -17 -9 -32 -15 -33 -13 -1
2 -12 30 -24 63 -15 41 -18 61 -10 64 6 2 28 19 49 38 22 20 39 31 39 25 0 -6
-19 -26 -42 -45 -40 -34 -41 -35 -28 -66 16 -40 23 -44 54 -30 l26 12 0 136
c0 127 -1 134 -16 112 -10 -13 -14 -33 -11 -49 4 -23 -2 -33 -39 -65 l-44 -39
-21 47 c-18 40 -23 44 -36 33 -12 -10 -14 -26 -10 -78 3 -36 7 -72 9 -79 5
-24 -77 -79 -137 -91 -53 -11 -129 -6 -155 10 -17 11 22 57 128 152 69 62 298
232 323 240 7 2 10 9 8 15 -5 14 -145 -41 -209 -82 -152 -98 -295 -225 -313
-278 -2 -8 -11 -6 -30 6 -23 15 -27 15 -27 3 0 -9 9 -20 20 -26 24 -13 25 -32
4 -93 -24 -71 -12 -78 25 -13 32 55 34 57 65 49 17 -4 67 -8 111 -8 71 0 87 4
137 31 31 18 60 29 63 26 13 -13 3 -51 -18 -65 -12 -8 -81 -71 -153 -139 -233
-223 -377 -302 -593 -328 -144 -18 -248 -48 -441 -130 -139 -59 -213 -84 -295
-101 -119 -24 -167 -46 -75 -34 110 14 277 64 390 115 148 67 236 97 335 115
44 7 81 12 83 11 1 -2 -55 -29 -125 -60 -153 -69 -173 -81 -173 -106 0 -11 3
-20 6 -20 3 0 81 36 173 80 92 44 186 86 208 94 37 13 40 13 37 -2 -12 -66
-15 -70 -46 -82 -218 -79 -470 -160 -498 -160 -54 0 -69 16 -23 24 65 13 123
43 123 64 0 11 -7 23 -16 26 -28 11 -80 6 -100 -9 -18 -14 -17 -14 13 -15 37
0 51 -15 26 -28 -30 -16 -172 -49 -283 -67 -58 -9 -143 -23 -190 -31 -101 -17
-123 -17 -115 -4 3 6 -2 11 -12 12 -10 0 -24 2 -30 2 -7 1 -20 9 -29 18 -15
15 -11 17 57 28 146 23 400 100 501 151 56 28 185 73 348 120 80 23 162 50
182 60 21 11 48 19 61 19 37 0 125 49 153 86 41 54 51 106 63 349 13 246 16
275 31 275 5 0 25 -14 44 -31 20 -17 40 -28 46 -24 17 10 11 88 -9 121 -11 18
-31 40 -46 50 -15 11 -42 32 -61 48 -19 15 -40 26 -47 23 -10 -4 -18 -71 -31
-248 -9 -134 -20 -258 -24 -275 -6 -28 -19 -38 -95 -78 -49 -25 -99 -46 -113
-46 -25 0 -64 31 -64 52 0 42 103 132 163 143 46 9 74 43 58 73 -6 11 -17 22
-25 25 -21 8 -66 -31 -66 -57 0 -17 -11 -28 -42 -42 -55 -24 -115 -78 -138
-123 -60 -120 -14 -257 104 -306 21 -9 37 -18 35 -20 -2 -2 -69 -11 -149 -20
-294 -33 -368 -51 -662 -164 -102 -39 -325 -95 -485 -121 -70 -11 -101 -29
-89 -49 4 -6 28 -8 59 -4 29 3 50 3 47 0 -11 -11 -193 -86 -200 -82 -4 3 -11
26 -15 51 -13 90 -11 89 -100 31 -44 -28 -163 -90 -265 -138 -165 -77 -185
-85 -188 -67 -2 10 2 26 10 35 7 9 118 68 247 132 129 64 239 124 245 133 29
47 -20 31 -256 -86 l-248 -122 0 34 0 34 203 98 c246 119 366 172 376 166 4
-3 13 -29 20 -59 12 -54 34 -97 45 -87 3 3 -1 24 -8 45 -8 22 -17 59 -21 82
-6 39 -4 43 22 57 15 8 40 26 56 41 22 21 25 29 17 46 -13 23 -30 16 -30 -11
0 -10 -12 -28 -27 -40 l-28 -22 -3 33 c-4 43 -28 69 -62 69 -32 0 -50 -17 -50
-47 0 -23 26 -43 48 -36 7 3 12 -4 12 -15 0 -13 -11 -24 -32 -33 -18 -7 -145
-64 -283 -127 -137 -62 -256 -116 -262 -119 -10 -4 -13 11 -13 55 0 39 -5 64
-14 71 -18 15 -34 -5 -17 -22 12 -12 15 -106 3 -124 -11 -18 -515 -263 -612
-298 -19 -7 -57 -27 -85 -44 -53 -33 -75 -40 -55 -16 17 21 24 134 11 169 -17
42 -26 24 -28 -57 -3 -110 -10 -135 -43 -152 -28 -15 -29 -14 -36 18 -14 67
-22 79 -45 67 -22 -12 -21 -35 2 -35 9 0 15 -14 17 -40 l3 -40 -68 -30 c-37
-17 -70 -31 -75 -33 -4 -2 -5 19 -1 46 3 28 2 84 -2 126 -8 86 -14 91 -73 51
l-37 -25 -8 52 c-4 29 -12 57 -17 62 -13 13 -63 -34 -56 -54 25 -81 25 -77 2
-88 -140 -70 -340 -161 -346 -157 -4 2 -10 18 -13 35 -4 19 -13 30 -23 30 -13
0 -15 -6 -9 -27 35 -143 44 -258 30 -404 -8 -73 -12 -136 -9 -138 10 -10 17
14 31 115 10 72 20 112 30 119 25 18 333 148 339 143 2 -3 2 -23 -2 -45 -6
-37 -9 -41 -102 -88 -92 -48 -125 -75 -109 -92 4 -4 50 14 101 39 l94 47 -8
-32 c-18 -77 -43 -157 -50 -157 -4 0 -21 7 -36 15 -74 38 -151 4 -141 -61 5
-27 2 -34 -11 -34 -21 0 -28 -4 -242 -129 -96 -56 -192 -116 -213 -132 l-37
-30 -30 30 c-17 16 -30 34 -30 39 0 5 31 28 68 50 173 103 241 176 288 312 39
113 41 135 11 154 -18 12 -31 14 -49 7 -45 -17 -51 -69 -13 -107 23 -22 24
-30 16 -60 -26 -94 -110 -184 -249 -267 -44 -26 -82 -47 -85 -47 -2 0 -7 13
-10 28 -5 25 4 38 76 113 119 123 177 242 177 367 0 48 2 53 19 47 28 -9 61
27 61 66 0 37 -9 56 -72 142 -120 163 -91 281 92 376 89 46 115 76 107 119 -5
26 -2 29 83 65 48 20 93 37 99 37 12 0 15 -93 4 -178 -5 -44 -9 -52 -22 -46
-42 18 -68 15 -100 -11 -27 -23 -32 -33 -29 -64 2 -26 10 -39 30 -50 25 -15
29 -14 67 17 22 18 42 32 45 32 11 0 -8 -35 -26 -48 -19 -14 -24 -57 -8 -67
16 -10 49 5 61 27 6 12 14 105 18 214 4 107 11 198 16 203 7 7 454 131 472
131 2 0 3 -4 3 -10 0 -5 -11 -10 -23 -10 -24 0 -132 -64 -175 -103 -18 -17
-36 -21 -90 -22 -63 0 -67 -2 -80 -28 -7 -15 -12 -40 -10 -55 l4 -27 12 28
c10 24 16 27 62 27 l50 0 0 -65 c0 -92 17 -81 22 15 4 65 9 84 24 95 151 108
164 116 164 97 0 -11 8 -30 18 -42 15 -19 22 -21 39 -11 28 15 35 39 23 80 -5
19 -7 37 -5 42 3 4 38 20 78 35 104 39 242 110 317 162 58 40 87 51 275 103
253 69 416 125 534 182 l88 42 -9 -36 c-13 -48 5 -112 39 -138 88 -70 235 35
237 170 1 52 -28 95 -68 101 -20 3 -21 10 -24 101 -3 105 -1 109 50 83 61 -32
33 28 -33 69 -21 14 -43 25 -49 25 -6 0 -10 -42 -10 -109 0 -131 -7 -169 -30
-176 -10 -3 -33 -16 -52 -28 -53 -35 -244 -122 -355 -160 -56 -20 -177 -56
-270 -82 -92 -25 -177 -48 -187 -52 -17 -5 -15 0 8 28 23 27 26 35 13 37 -29
6 -221 -60 -302 -104 -98 -53 -212 -97 -220 -84 -3 5 36 36 87 70 51 35 114
79 139 100 32 27 50 36 60 29 35 -22 151 2 252 53 44 22 54 19 37 -12 -6 -11
-10 -29 -8 -38 3 -11 13 0 30 33 15 28 55 79 90 115 73 75 113 145 144 250 26
88 23 92 78 -98 42 -142 42 -149 16 -157 -28 -9 -40 2 -40 33 0 15 -4 33 -9
41 -13 19 -50 4 -57 -24 -7 -27 20 -74 45 -77 42 -3 78 6 102 27 21 17 41 23
86 24 102 2 196 62 196 126 0 85 -131 96 -223 18 l-30 -25 -10 27 c-6 15 -20
65 -33 111 l-22 83 23 22 c27 24 23 36 -7 20 -23 -13 -24 -12 -42 57 -15 59
-9 67 60 92 28 10 36 10 39 0 8 -24 42 -50 66 -50 13 0 36 10 51 21 26 21 29
39 14 87 -2 7 39 32 111 65 141 64 133 59 204 135 66 69 56 82 -19 25 -28 -21
-127 -74 -220 -117 -94 -44 -179 -87 -190 -96 -33 -29 -127 -72 -136 -63 -5 5
-10 19 -11 33 -3 22 9 30 147 91 249 113 320 147 346 168 l24 20 -30 0 c-16
-1 -50 -13 -75 -27z m-507 -292 c-18 -33 -55 -72 -105 -113 -81 -65 -118 -123
-118 -185 0 -28 -16 -130 -26 -164 -3 -10 -31 -33 -62 -51 -116 -70 -314 -137
-690 -232 -266 -68 -252 -65 -252 -55 0 4 28 13 63 20 81 15 144 44 183 81 28
27 50 35 174 60 294 61 469 137 515 223 17 31 17 101 1 151 -5 16 13 37 96
112 87 77 235 199 246 202 2 1 -9 -22 -25 -49z m57 -94 c-1 -79 -87 -200 -234
-326 l-28 -25 4 55 c5 50 10 60 59 111 30 31 69 83 88 115 78 134 82 140 97
119 8 -10 14 -33 14 -49z m-139 -63 c-21 -32 -55 -76 -76 -98 l-36 -40 22 43
c21 38 114 152 125 152 3 0 -13 -26 -35 -57z m111 -157 c-54 -138 -129 -229
-238 -287 -92 -50 -101 -43 -24 18 117 93 214 202 252 281 18 39 34 69 36 67
2 -2 -10 -37 -26 -79z m-418 -88 c-28 -31 -144 -81 -279 -121 -217 -63 -229
-62 -51 7 143 56 242 106 293 151 l38 33 9 -25 c6 -18 3 -29 -10 -45z m1036
-108 c0 -6 -12 -15 -27 -21 -35 -13 -63 -38 -73 -64 -8 -19 -8 -19 -16 -1 -10
25 14 67 46 83 30 15 70 17 70 3z m-1665 -170 c-22 -35 -227 -99 -252 -78 -29
23 -10 35 100 60 124 29 161 33 152 18z m485 -5 c0 -2 -44 -35 -97 -73 -108
-76 -313 -190 -313 -173 0 5 4 12 9 16 5 3 12 19 16 35 6 26 19 37 88 72 45
22 95 50 111 61 56 39 186 83 186 62z m-766 -91 c4 -9 5 -19 2 -21 -7 -7 -181
-42 -185 -37 -6 6 -4 7 79 42 87 36 96 38 104 16z m16 -91 c-1 -17 -26 -40
-38 -35 -7 2 -27 -7 -45 -21 -18 -13 -93 -50 -167 -82 -74 -32 -165 -73 -202
-91 l-67 -34 -7 35 c-3 18 -4 39 -2 45 4 12 234 107 388 160 82 29 140 38 140
23z m330 -3 c0 -6 -7 -25 -16 -41 -29 -57 -144 -114 -452 -224 -174 -62 -287
-111 -342 -148 l-25 -16 1 56 c0 42 5 58 18 65 10 6 113 48 230 94 116 46 219
89 230 95 14 8 21 6 33 -10 31 -44 97 -14 75 34 -14 30 -65 35 -80 9 -8 -14
-10 -12 -14 9 -4 23 -1 26 50 36 31 6 74 11 96 12 23 0 73 9 111 19 88 22 85
22 85 10z m105 -70 c3 -5 -9 -17 -26 -26 -47 -24 -161 -65 -166 -60 -9 8 144
90 179 95 4 1 9 -3 13 -9z m-120 -141 c-226 -61 -358 -99 -388 -113 -226 -104
-210 -98 -249 -85 -27 9 -44 9 -68 0 -28 -9 -31 -9 -20 4 6 8 46 22 88 31 94
20 255 71 382 119 110 43 244 74 315 74 47 -1 42 -3 -60 -30z m2515 -107 c0
-26 -413 -158 -510 -162 -103 -5 -90 6 27 25 96 16 136 28 333 99 129 46 150
52 150 38z m781 -98 c7 -8 0 -20 -21 -38 -37 -31 -45 -32 -55 -8 -20 51 -15
75 23 108 l37 32 3 -41 c2 -23 8 -47 13 -53z m-3432 37 c9 -6 -3 -10 -38 -12
-51 -4 -71 6 -28 14 38 7 52 7 66 -2z m3291 -20 c0 -27 -38 -52 -182 -121
l-123 -59 -3 25 c-2 18 -13 30 -35 39 -23 10 -28 15 -17 19 52 20 337 115 348
115 6 1 12 -8 12 -18z m48 -106 c-2 -1 -46 -28 -98 -59 -92 -54 -220 -111
-280 -123 l-29 -5 15 40 c15 37 23 43 113 81 53 23 132 61 176 85 l80 44 13
-30 c7 -17 12 -31 10 -33z m387 -21 c-22 -19 -68 -57 -102 -84 l-61 -49 -12
29 c-6 15 -21 31 -33 35 -18 5 -10 12 50 41 64 30 159 62 188 63 6 0 -8 -15
-30 -35z m-846 -1 c0 -5 -6 -23 -13 -42 -11 -30 -24 -39 -131 -88 l-118 -54
-22 27 c-25 31 -72 36 -91 10 -10 -14 -8 -27 13 -72 14 -31 23 -57 22 -59 -2
-1 -68 -35 -146 -74 -118 -59 -143 -68 -143 -53 0 10 -5 23 -11 29 -8 8 17 26
88 63 116 63 107 56 98 70 -4 7 -41 -7 -108 -43 -56 -29 -117 -59 -135 -65
-42 -14 -231 -128 -311 -187 l-62 -45 27 -35 c14 -19 30 -35 35 -35 4 0 47 27
94 60 47 33 88 60 90 60 3 0 5 -7 5 -16 0 -9 -29 -46 -65 -83 -36 -37 -65 -72
-65 -77 0 -5 7 -19 15 -31 15 -22 16 -22 95 42 103 83 116 90 129 68 7 -14 -3
-31 -57 -87 -36 -39 -60 -72 -54 -74 6 -2 26 13 43 33 35 39 159 134 314 241
l100 68 -46 -50 c-26 -28 -50 -60 -54 -73 -3 -12 -68 -68 -143 -125 -147 -111
-197 -154 -189 -162 3 -3 43 23 88 59 92 69 174 127 183 127 15 0 3 -29 -21
-52 -29 -27 -183 -120 -234 -142 -19 -8 -41 -32 -60 -64 -16 -29 -26 -52 -22
-52 9 0 186 101 236 134 27 18 27 18 27 -5 0 -19 -16 -34 -82 -74 -46 -27
-109 -67 -141 -88 -54 -36 -61 -38 -88 -27 -25 11 -32 10 -49 -5 -45 -41 -33
-129 26 -195 l35 -38 -63 -7 c-35 -4 -106 -13 -158 -21 -52 -8 -107 -14 -122
-14 -31 0 -33 6 -22 98 7 52 7 52 43 52 75 0 185 75 210 143 6 16 11 49 11 74
0 113 -111 185 -232 149 -168 -49 -226 -245 -99 -333 l41 -28 -3 -80 -2 -80
-105 -13 -104 -14 -23 27 c-28 32 -28 37 -2 111 32 92 47 168 65 319 18 160
17 157 131 266 93 89 160 143 263 212 41 28 117 84 169 124 158 124 244 160
470 193 124 18 304 64 391 99 31 12 40 13 39 4z m-875 -18 c-2 -22 -248 -144
-262 -130 -13 13 16 37 105 88 70 41 107 57 128 55 17 -2 30 -7 29 -13z m1306
-51 c-25 -25 -70 -58 -100 -74 -61 -30 -239 -90 -270 -90 -44 0 -15 19 68 45
101 31 228 89 292 134 25 17 47 31 50 31 2 0 -16 -21 -40 -46z m-1695 -21 c6
-29 4 -33 -15 -33 -50 0 -291 -96 -481 -191 -70 -35 -77 -36 -82 -20 -3 15 7
23 52 41 141 58 468 213 486 230 22 23 30 17 40 -27z m425 -19 c-13 -45 -12
-48 9 -65 l22 -18 -21 -11 c-12 -6 -28 -9 -36 -6 -8 3 -25 -1 -37 -8 -12 -8
-58 -29 -101 -46 -80 -31 -95 -30 -96 8 0 7 -6 22 -12 33 -10 16 -10 23 -2 26
7 2 72 34 145 71 74 37 136 66 138 65 2 -1 -2 -23 -9 -49z m-2824 -38 c-20
-48 -36 -67 -97 -117 -41 -32 -76 -58 -79 -58 -3 0 -16 13 -28 30 l-24 30 28
22 c40 32 219 156 221 153 1 -1 -8 -28 -21 -60z m1852 22 c3 -34 0 -39 -37
-58 -25 -12 -50 -18 -64 -15 -31 8 -85 -36 -89 -72 -3 -22 -17 -31 -102 -69
-71 -31 -102 -40 -107 -32 -5 8 -15 5 -31 -11 -21 -20 -118 -65 -124 -58 -1 1
-6 24 -12 51 l-10 48 91 42 c51 22 173 80 272 128 99 47 187 86 195 85 10 -2
16 -15 18 -39z m1077 -3 l30 -7 -28 -10 c-22 -8 -32 -6 -48 8 -10 9 -19 24
-19 32 0 13 2 13 18 0 9 -8 31 -19 47 -23z m689 -7 c-26 -82 -28 -84 -116
-102 -46 -9 -93 -19 -105 -22 -17 -5 -23 -2 -23 9 0 10 45 38 118 76 64 33
121 60 125 61 5 0 5 -10 1 -22z m674 -30 c-5 -15 -48 -24 -48 -10 0 14 12 22
33 22 10 0 17 -5 15 -12z m-2418 -49 c7 -11 10 -22 8 -23 -2 -1 -19 -9 -40
-18 -32 -15 -37 -15 -42 -2 -10 26 -7 33 22 48 36 20 39 20 52 -5z m2336 -23
c-3 -14 -15 -30 -26 -36 -25 -14 -25 -4 1 39 22 37 35 36 25 -3z m-698 -37
c-3 -10 -107 -48 -130 -49 -5 0 -8 8 -8 19 0 13 11 21 43 28 59 15 99 15 95 2z
m629 -23 c-6 -15 -44 -38 -85 -51 -21 -6 -23 -4 -20 21 3 25 9 29 53 39 56 13
60 12 52 -9z m-142 -23 c-4 -21 -9 -41 -11 -45 -5 -8 -165 -60 -170 -55 -5 4
168 137 180 137 4 0 5 -17 1 -37z m-3170 -140 c-4 -23 -15 -38 -35 -48 l-30
-16 0 63 c0 35 -3 73 -6 85 -5 17 1 25 33 41 l38 20 3 -56 c2 -32 0 -72 -3
-89z m3389 75 c4 -35 14 -78 23 -95 17 -36 68 -73 101 -73 16 0 24 -13 41 -69
26 -86 26 -112 1 -139 -29 -31 -63 -27 -105 10 -66 57 -108 171 -121 324 -6
77 -5 82 16 97 13 9 26 14 30 12 4 -3 11 -33 14 -67z m-3504 -57 c0 -52 -3
-59 -30 -79 -20 -16 -30 -31 -30 -50 0 -25 -9 -31 -143 -88 -90 -38 -144 -56
-148 -50 -4 6 -9 45 -12 87 l-6 76 177 85 c97 47 180 83 185 81 4 -2 7 -30 7
-62z m500 47 c0 -33 -39 -72 -97 -98 l-63 -29 0 35 c0 34 3 36 73 69 82 38 87
40 87 23z m1936 -33 c-11 -8 -25 -15 -30 -15 -6 1 0 7 14 15 32 19 40 18 16 0z
m828 -9 c-3 -9 -11 -16 -16 -16 -6 0 -52 -16 -104 -35 -51 -19 -103 -35 -115
-35 -19 0 -20 2 -8 17 22 26 92 53 161 60 38 3 66 12 71 20 11 19 19 11 11
-11z m-2534 -67 c0 -37 -2 -39 -30 -39 -28 0 -29 2 -20 26 29 74 50 80 50 13z
m1620 37 c0 -3 -28 -21 -62 -42 -35 -20 -79 -49 -98 -63 -20 -14 -29 -18 -21
-8 8 10 48 40 90 68 69 45 91 56 91 45z m-2040 -40 c0 -32 -2 -34 -97 -76 -54
-23 -117 -52 -140 -65 l-41 -23 5 37 c3 20 6 37 7 38 5 7 243 122 254 123 7 0
12 -13 12 -34z m1380 1 c0 -2 -10 -12 -22 -23 l-23 -19 19 23 c18 21 26 27 26
19z m1207 -59 c-24 -29 -73 -96 -108 -148 -35 -53 -68 -98 -73 -100 -5 -3 -14
10 -21 29 -20 61 -30 44 -30 -52 -1 -103 -23 -175 -74 -236 l-28 -35 1 100 c0
57 -5 121 -14 152 l-14 52 32 33 c35 36 39 47 18 47 -8 0 -25 -14 -37 -31 -21
-30 -23 -31 -36 -13 -7 10 -13 21 -13 25 0 4 41 28 91 54 50 26 89 49 86 51
-5 6 -105 -29 -156 -56 -35 -18 -45 -19 -52 -8 -13 20 -11 25 24 51 45 35 140
80 217 105 79 25 99 29 173 31 l59 1 -45 -52z m-1267 -11 c0 -1 -28 -29 -62
-62 -34 -33 -56 -51 -48 -40 18 27 110 112 110 102z m-181 -147 c1 -24 -7 -42
-22 -55 -12 -12 -47 -44 -77 -72 l-55 -52 3 38 c3 32 -1 42 -23 60 -36 28 -48
27 -89 -10 -40 -35 -55 -84 -35 -120 9 -17 9 -24 0 -27 -16 -5 -13 -42 5 -49
20 -8 111 55 202 141 40 38 75 67 77 64 3 -3 2 -19 -1 -36 -7 -37 -100 -133
-164 -172 -23 -14 -68 -42 -100 -62 -47 -30 -60 -34 -64 -21 -11 29 -6 140 10
192 15 51 74 131 98 131 6 1 56 32 111 69 l100 69 12 -26 c7 -15 12 -43 12
-62z m975 -97 c-17 -27 -34 -27 -34 0 0 27 19 40 35 25 6 -5 6 -14 -1 -25z
m1640 -18 c-9 -14 -17 -46 -18 -72 l-1 -47 -130 -32 c-141 -35 -297 -85 -413
-133 -62 -26 -72 -28 -68 -13 3 9 10 36 16 59 8 31 19 47 46 63 19 12 38 20
41 17 3 -3 12 0 20 8 8 8 78 35 156 59 135 42 359 113 365 115 1 1 -5 -10 -14
-24z m-1640 -63 c-20 -18 -29 -21 -32 -12 -3 8 8 25 24 38 20 18 29 21 32 12
3 -8 -8 -25 -24 -38z m-110 -80 c-27 -24 -85 -67 -129 -97 -72 -48 -81 -51
-93 -37 -7 9 -11 23 -10 31 2 8 64 52 138 98 109 67 136 79 139 65 2 -10 -15
-33 -45 -60z m161 -46 c11 -116 -15 -166 -111 -215 -51 -27 -150 -44 -173 -31
-12 7 -8 9 19 10 88 1 180 51 219 119 32 58 28 91 -20 169 -13 22 -12 25 16
48 l30 24 7 -25 c3 -14 9 -58 13 -99z m-1051 62 c-6 -42 -12 -49 -78 -99 -39
-30 -89 -70 -111 -89 l-40 -34 33 35 c20 22 32 46 33 64 1 24 16 43 82 101 45
39 83 70 85 69 1 -1 -1 -22 -4 -47z m-1264 -37 c0 -19 -43 -61 -61 -61 -5 0
-9 11 -9 25 0 16 9 29 28 39 36 20 42 20 42 -3z m2210 -28 c0 -67 -28 -108
-93 -138 -28 -14 -60 -25 -70 -25 -24 0 -87 27 -87 37 0 4 34 30 76 57 41 27
94 64 117 83 23 18 45 33 50 33 4 0 7 -21 7 -47z m1690 19 c0 -15 -13 -22 -57
-32 -210 -46 -493 -145 -558 -194 -32 -25 -35 -25 -35 -8 0 42 39 70 168 120
139 55 222 81 352 111 112 25 130 26 130 3z m-4000 -57 c0 -12 -28 -35 -44
-35 -11 0 -6 19 10 34 19 20 34 20 34 1z m1340 -48 c-11 -54 -38 -89 -100
-130 -36 -25 -82 -22 -110 8 -13 14 -18 25 -11 25 11 0 180 117 210 146 22 20
24 11 11 -49z m2006 -2 c-8 -31 -16 -58 -18 -60 -24 -19 -93 -65 -98 -65 -4 0
0 33 8 74 l14 74 44 12 c25 7 47 17 50 22 14 22 14 -4 0 -57z m-3256 22 c0
-31 -4 -35 -75 -70 -69 -34 -75 -35 -75 -17 0 11 8 27 18 36 16 15 123 84 129
84 2 0 3 -15 3 -33z m-175 -59 c-11 -35 -45 -67 -97 -94 l-48 -24 0 38 c0 38
1 39 68 70 80 38 85 39 77 10z m-421 0 c-4 -6 -6 -32 -5 -58 l1 -48 -96 -62
-96 -62 -22 26 c-11 14 -32 29 -44 34 -21 7 -8 18 120 94 159 96 152 92 142
76z m3946 -102 c0 -7 -11 -21 -25 -30 -14 -9 -36 -23 -50 -32 -22 -14 -25 -14
-25 -1 0 14 75 77 92 77 4 0 8 -6 8 -14z m-1121 -42 c-27 -29 -163 -121 -229
-154 -24 -12 -70 -25 -103 -28 -59 -5 -59 -5 -51 19 11 36 10 61 -3 66 -7 3
-16 -13 -23 -37 -11 -41 -12 -42 -47 -35 -79 15 -238 93 -222 109 2 3 87 16
187 30 170 24 187 25 228 11 74 -25 161 -20 225 14 30 15 56 29 58 30 3 0 -6
-11 -20 -25z m-1233 -15 c18 -20 18 -21 -16 -49 -38 -31 -124 -85 -152 -96
-20 -7 -22 3 -8 40 8 21 132 125 151 126 3 0 14 -9 25 -21z m2334 -41 c-10
-39 -18 -48 -56 -66 -48 -24 -51 -20 -36 36 6 19 91 85 100 77 2 -1 -2 -23 -8
-47z m-2198 12 c13 -5 38 -22 57 -38 l35 -30 -43 -21 c-50 -26 -77 -15 -66 26
4 16 1 23 -8 23 -8 0 -19 11 -25 25 -10 22 -9 25 8 25 10 0 29 -4 42 -10z
m-1626 -35 c-9 -14 -28 -31 -42 -37 -13 -6 -24 -14 -24 -18 0 -3 -21 -40 -47
-80 -47 -74 -48 -74 -57 -47 -7 19 -16 27 -30 25 -43 -6 -22 20 49 62 41 24
75 51 75 60 1 14 80 71 89 64 2 -2 -4 -15 -13 -29z m1544 -4 c6 -17 10 -34 7
-38 -3 -5 -40 -30 -81 -57 l-76 -48 -29 24 -28 24 46 27 c25 15 66 42 91 61
25 19 48 35 51 35 4 1 12 -12 19 -28z m460 4 c0 -9 7 -30 16 -47 18 -35 24
-36 -86 13 -71 32 -73 34 -45 40 61 13 115 10 115 -6z m1666 -57 c-19 -57 -26
-65 -66 -85 -25 -12 -47 -20 -48 -18 -2 2 -1 21 3 42 5 33 15 44 68 80 34 23
62 42 63 42 1 1 -8 -27 -20 -61z m-3665 -74 c-39 -17 -124 -112 -118 -132 28
-97 31 -114 21 -129 -20 -32 -30 -22 -52 53 -23 76 -23 77 -4 98 39 43 132
170 132 180 0 6 11 -5 24 -24 l23 -35 -26 -11z m1593 37 l28 -29 -95 -51 c-52
-28 -97 -51 -100 -51 -3 0 -10 13 -15 30 -11 29 -10 30 71 79 45 28 82 50 83
51 0 0 13 -13 28 -29z m605 -18 c47 -14 88 -27 90 -29 2 -2 0 -15 -3 -30 -6
-24 -10 -26 -44 -19 -45 8 -162 61 -162 72 0 9 21 33 28 33 2 0 43 -12 91 -27z
m1327 1 c-3 -9 -6 -23 -6 -32 0 -34 -18 -40 -150 -56 -74 -9 -162 -23 -195
-31 -33 -7 -62 -12 -64 -10 -2 3 2 18 9 35 14 35 10 33 190 59 74 11 151 26
170 35 45 20 54 20 46 0z m273 -31 c25 -100 24 -154 -2 -153 -7 1 -33 20 -59
43 l-46 42 14 35 c12 31 54 69 76 70 4 0 11 -17 17 -37z m-2535 11 c11 -29 6
-35 -66 -70 -67 -32 -74 -33 -85 -17 -7 9 -13 20 -13 25 0 9 128 77 146 78 7
0 15 -7 18 -16z m-1684 1 c0 -7 -74 -55 -85 -55 -14 1 57 59 73 60 6 0 12 -2
12 -5z m3213 -45 c12 -32 25 -45 61 -61 54 -23 87 -18 119 21 17 20 35 28 70
32 51 6 49 10 32 -51 -10 -35 -374 -106 -414 -82 -7 5 -8 18 -1 41 7 23 6 38
-1 45 -14 13 -39 -20 -39 -52 0 -19 -5 -23 -30 -23 -29 0 -30 1 -30 48 l0 49
103 35 c56 19 105 36 108 36 3 1 13 -16 22 -38z m847 15 c0 -22 -31 -60 -63
-76 l-38 -20 3 28 c2 20 14 34 43 50 39 22 55 28 55 18z m-3932 -65 c-28 -24
-129 -83 -133 -78 -2 2 31 29 73 61 42 31 79 52 80 47 2 -6 -7 -19 -20 -30z
m3797 -12 c-4 -18 -13 -38 -20 -43 -14 -11 -375 -109 -380 -103 -2 2 -1 29 2
60 l6 56 86 16 c47 8 131 20 186 27 55 6 102 13 104 15 14 14 22 -1 16 -28z
m-2176 -7 l24 -18 -85 -47 c-47 -25 -90 -46 -96 -46 -12 0 -28 47 -20 56 6 6
142 73 148 73 3 1 16 -8 29 -18z m2156 -136 c-7 -62 -9 -66 -29 -61 -57 17
-76 16 -131 -4 -33 -11 -90 -29 -127 -39 l-67 -19 5 27 c4 19 0 33 -11 45 -10
9 -16 18 -14 20 2 2 54 15 114 29 61 15 144 37 185 50 41 13 77 23 78 21 2 -1
1 -32 -3 -69z m-2385 35 c7 -17 11 -32 9 -34 -2 -1 -26 -18 -54 -36 -27 -18
-60 -42 -72 -53 l-21 -19 -16 31 -16 31 72 54 c40 30 76 55 79 55 4 1 12 -13
19 -29z m349 -8 c7 -13 6 -23 -1 -30 -18 -18 -25 -15 -48 18 l-21 30 30 0 c19
0 34 -7 40 -18z m-138 -65 l27 -32 -60 -33 -59 -32 -15 36 c-8 20 -13 39 -10
42 9 9 81 51 86 51 3 0 17 -15 31 -32z m-183 -19 c-3 -7 -33 -32 -66 -56 -52
-36 -61 -40 -72 -27 -15 18 -19 14 61 70 60 41 89 47 77 13z m-215 -35 c14
-26 13 -28 -35 -66 -27 -22 -50 -38 -51 -36 -2 2 -8 16 -14 31 -11 24 -9 29
30 62 23 19 45 35 49 36 4 0 14 -12 21 -27z m2537 -13 c0 -5 -12 -12 -27 -16
-16 -3 -50 -12 -78 -19 -27 -8 -51 -12 -54 -10 -2 3 20 16 50 30 55 25 109 33
109 15z m-198 -47 c-7 -11 -37 -23 -89 -34 -43 -9 -80 -15 -83 -12 -15 14 27
41 96 59 80 21 93 19 76 -13z m-2288 -11 c15 -18 13 -21 -44 -65 -57 -45 -60
-46 -70 -26 -15 27 -12 32 40 73 53 41 52 41 74 18z m2486 -6 c0 -22 -21 -32
-91 -44 -86 -16 -91 -15 -87 5 2 13 23 23 73 35 88 21 105 21 105 4z m-2667
-58 c-3 -7 -147 -118 -171 -132 -12 -7 -41 17 -42 35 0 3 43 41 97 84 l96 77
12 -29 c7 -15 11 -31 8 -35z m2465 15 c-2 -12 -21 -21 -68 -30 -36 -7 -75 -15
-87 -18 -16 -4 -23 -1 -23 9 0 10 27 21 83 34 103 25 99 25 95 5z m-2428 -89
c0 -6 -48 -48 -107 -92 -104 -78 -108 -80 -111 -56 -5 40 0 47 99 123 85 66
94 71 106 55 7 -10 13 -23 13 -30z m605 -26 c74 -103 84 -156 38 -200 -40 -37
-81 -61 -92 -54 -5 4 -19 35 -31 70 -21 64 -21 65 -2 103 11 21 25 57 32 81 7
23 16 42 19 42 3 0 20 -19 36 -42z"/>
<path d="M3127 3115 c-18 -17 -13 -45 8 -45 7 0 18 7 25 16 11 12 11 18 -2 30
-14 14 -17 14 -31 -1z"/>
<path d="M3022 3048 c-14 -14 2 -48 24 -48 20 0 29 27 14 45 -15 18 -22 19
-38 3z"/>
<path d="M2392 2675 c0 -16 2 -22 5 -12 2 9 2 23 0 30 -3 6 -5 -1 -5 -18z"/>
<path d="M2925 5089 c-68 -34 -103 -64 -116 -96 -10 -27 -2 -53 17 -53 29 0
319 142 349 171 5 5 -30 9 -90 9 -91 0 -105 -3 -160 -31z"/>
<path d="M3269 5104 c-42 -51 -263 -169 -410 -220 -41 -13 -118 -30 -172 -37
-89 -10 -98 -14 -103 -34 -13 -49 48 -93 128 -93 45 0 40 -16 -10 -35 -26 -10
-95 -42 -154 -71 -59 -30 -110 -54 -113 -54 -3 0 -5 16 -5 35 0 28 -5 38 -26
47 -57 26 -112 -47 -83 -108 22 -46 55 -42 163 16 160 86 333 158 445 185 121
29 251 88 299 136 37 36 60 77 102 181 l28 68 -38 0 c-22 0 -43 -7 -51 -16z
m-31 -129 c-77 -74 -192 -135 -302 -160 -86 -20 -109 -14 -36 9 84 27 289 131
345 176 28 21 52 39 55 39 3 0 -25 -29 -62 -64z"/>
<path d="M3610 5088 c-47 -16 -116 -32 -155 -35 -38 -3 -76 -10 -82 -16 -20
-15 -15 -45 8 -58 41 -22 250 17 387 71 52 21 79 27 86 20 18 -18 60 -10 106
20 l45 30 -101 0 c-89 0 -103 -2 -119 -20 -40 -44 -338 -114 -394 -93 -20 8
-9 11 55 16 77 6 243 52 294 82 l25 14 -35 0 c-19 0 -73 -14 -120 -31z"/>
<path d="M4064 5081 c-88 -53 -221 -98 -245 -83 -25 16 -50 15 -74 -2 -42 -29
-255 -76 -346 -76 -45 0 -65 -20 -49 -49 7 -15 21 -21 43 -21 53 0 255 30 342
51 88 21 125 24 125 10 0 -18 -128 -52 -224 -60 -71 -6 -102 -13 -114 -25 -16
-16 -16 -19 7 -37 47 -39 212 -18 315 40 28 16 77 36 110 45 159 46 310 156
268 198 -6 6 -21 -2 -43 -22 -33 -30 -202 -120 -227 -120 -29 0 -7 17 51 39
92 35 207 113 207 141 0 6 -19 10 -42 9 -31 -1 -61 -12 -104 -38z"/>
<path d="M4320 5098 c-5 -13 -14 -48 -20 -78 -9 -48 -15 -57 -43 -70 -26 -12
-32 -21 -32 -45 0 -23 5 -31 21 -33 33 -5 61 39 74 117 15 87 40 106 40 31 0
-28 -4 -50 -10 -50 -15 0 -12 -36 5 -50 8 -7 21 -10 29 -7 11 5 13 22 9 88 -6
78 -5 83 18 100 l24 19 -53 0 c-45 0 -54 -3 -62 -22z"/>
<path d="M4484 5104 c21 -56 19 -61 -28 -79 -45 -17 -61 -35 -31 -35 27 0 178
56 250 93 l70 36 -45 0 c-29 1 -57 -7 -79 -20 -27 -16 -36 -18 -42 -7 -5 7 -9
16 -9 21 0 4 -21 7 -46 7 -38 0 -45 -3 -40 -16z"/>
<path d="M4790 5054 c-84 -47 -121 -63 -139 -59 -28 7 -191 -34 -191 -47 0 -5
5 -18 11 -30 14 -25 12 -26 -57 -45 -75 -19 -99 -32 -86 -45 6 -6 70 8 188 42
180 51 355 127 494 215 l55 35 -80 -1 c-79 -1 -81 -2 -195 -65z"/>
<path d="M4995 5018 c-66 -39 -198 -111 -293 -160 -95 -50 -177 -98 -182 -108
-7 -13 -5 -24 9 -41 l19 -23 223 112 c123 61 252 130 287 152 l62 40 0 50 c0
28 -1 50 -2 49 -2 -1 -57 -33 -123 -71z"/>
<path d="M345 4965 c-20 -64 -34 -119 -31 -122 12 -13 27 15 57 110 38 116 38
119 22 124 -8 3 -25 -38 -48 -112z"/>
<path d="M2642 4922 c-17 -12 -4 -42 18 -42 25 0 35 18 20 35 -14 17 -20 18
-38 7z"/>
<path d="M4978 4846 c-151 -92 -217 -143 -238 -181 -11 -21 -11 -27 3 -43 22
-25 22 -25 -18 -78 -69 -90 -37 -105 71 -31 43 29 134 87 202 127 l122 74 0
52 c0 33 -5 54 -12 57 -10 3 -10 7 0 20 7 8 12 31 10 51 l-3 35 -137 -83z"/>
<path d="M836 4898 c-42 -59 19 -123 84 -88 26 14 34 57 15 86 -21 32 -77 33
-99 2z"/>
<path d="M40 4851 c-34 -18 -35 -20 -38 -90 -2 -39 1 -71 6 -71 17 0 103 72
111 92 10 27 -10 88 -29 88 -8 0 -31 -8 -50 -19z"/>
<path d="M1054 4862 c-6 -4 -15 -17 -18 -30 -4 -12 -35 -45 -69 -73 -75 -62
-87 -76 -87 -105 0 -61 91 -72 172 -20 l43 28 -47 -42 c-39 -34 -51 -53 -68
-107 -22 -73 -26 -143 -8 -161 20 -20 28 -14 28 20 0 49 37 113 91 159 45 37
49 45 48 82 0 52 -50 250 -64 254 -5 1 -15 -1 -21 -5z"/>
<path d="M3915 4769 c-82 -37 -162 -74 -178 -83 -26 -14 -28 -14 -53 11 -23
23 -30 25 -77 19 -29 -4 -87 -22 -129 -41 l-77 -33 2 86 2 87 -57 -1 c-47 -1
-76 -10 -157 -49 -99 -47 -100 -48 -106 -89 -11 -65 -40 -121 -85 -165 -50
-48 -47 -66 5 -27 43 33 85 104 100 169 l11 50 95 42 c51 23 111 45 133 49
l39 7 -8 -83 c-7 -85 -16 -108 -42 -108 -19 0 -397 -188 -401 -200 -9 -26 32
-15 148 39 71 34 132 61 135 61 3 0 5 -15 5 -32 0 -32 -3 -34 -130 -95 -123
-58 -131 -61 -140 -42 -17 31 -30 22 -19 -13 14 -49 11 -185 -3 -197 -7 -6
-28 -23 -46 -37 -24 -20 -32 -33 -30 -52 4 -35 30 -49 61 -33 38 20 47 53 47
170 l0 108 88 36 c48 19 104 43 125 51 l37 16 0 -44 c0 -43 -1 -44 -50 -64
-45 -19 -61 -38 -44 -55 4 -3 32 7 64 23 l57 29 22 -23 22 -23 -61 -27 c-33
-15 -60 -31 -60 -36 0 -22 25 -19 76 10 31 17 65 30 77 28 15 -2 -4 -15 -62
-42 -48 -22 -79 -42 -74 -47 6 -6 46 7 97 31 48 22 92 38 98 34 14 -9 2 -63
-19 -86 -21 -24 -36 -23 -28 2 5 15 2 20 -14 20 -26 0 -34 -15 -21 -40 14 -27
61 -26 86 1 10 11 24 43 29 70 l10 49 175 81 c96 45 182 83 191 86 15 4 16 -6
11 -104 l-5 -108 -46 -43 c-40 -38 -57 -45 -131 -62 -47 -10 -114 -21 -150
-25 -36 -3 -75 -8 -87 -11 -37 -7 -26 -24 15 -24 34 0 242 33 287 45 18 5 20
1 21 -53 l0 -59 -155 -22 c-184 -27 -188 -28 -174 -42 10 -10 182 9 291 32 42
9 46 8 82 -25 108 -97 260 -23 260 126 0 75 -66 148 -132 148 -27 0 -28 2 -28
48 0 26 3 77 7 115 l6 67 70 21 c38 11 76 23 83 26 11 4 14 -11 14 -74 0 -67
-3 -83 -20 -98 -23 -21 -27 -70 -6 -78 8 -3 24 6 37 20 23 24 24 30 23 181 -1
135 -14 242 -29 242 -3 0 -69 -31 -147 -69 -79 -38 -202 -96 -274 -128 l-130
-59 -17 23 -18 23 93 46 c149 75 577 273 603 280 16 4 25 13 25 25 0 10 -2 19
-5 19 -12 0 -296 -130 -500 -230 -126 -62 -245 -116 -262 -120 -30 -7 -33 -6
-33 17 0 21 14 31 113 77 126 60 590 287 595 291 2 2 2 10 0 17 -2 11 -42 -3
-153 -53z m-247 -99 c2 -11 -40 -35 -138 -82 l-140 -66 0 33 c0 29 6 37 47 61
62 36 171 75 203 72 14 -2 26 -10 28 -18z m313 -130 c-13 -11 -35 -20 -50 -19
-24 1 -23 2 14 20 52 24 66 24 36 -1z m-126 -60 c3 -6 -5 -14 -20 -20 -14 -5
-30 -21 -35 -35 -5 -14 -14 -25 -20 -25 -9 0 -140 -55 -271 -113 l-57 -26 11
29 c10 25 35 40 182 108 93 44 177 82 185 85 8 3 16 6 17 6 1 1 5 -4 8 -9z
m-545 -52 c0 -6 -16 -26 -35 -44 -34 -31 -35 -31 -35 -9 0 13 11 33 26 44 30
24 44 27 44 9z m-83 -110 c-3 -8 -6 -5 -6 6 -1 11 2 17 5 13 3 -3 4 -12 1 -19z
m129 -22 c28 5 36 4 32 -7 -12 -35 -108 -29 -108 6 0 13 4 14 20 5 12 -6 36
-8 56 -4z m587 -247 c18 -20 27 -40 27 -62 l-1 -32 -20 37 c-22 43 -45 58 -88
58 -34 0 -40 13 -13 29 26 16 64 4 95 -30z"/>
<path d="M4468 4798 c-55 -19 -88 -35 -88 -44 0 -19 2 -18 93 12 67 22 101 45
86 58 -2 2 -43 -10 -91 -26z"/>
<path d="M2916 4651 c-7 -11 18 -33 27 -24 4 3 7 12 7 20 0 15 -26 18 -34 4z"/>
<path d="M4073 4604 c18 -59 27 -118 27 -191 0 -91 5 -113 27 -113 15 0 13 57
-8 195 -13 87 -13 85 24 79 l32 -5 -24 20 c-13 12 -29 21 -36 21 -7 0 -21 3
-30 7 -14 5 -16 2 -12 -13z"/>
<path d="M4250 4553 c-32 -27 -32 -28 -26 -94 3 -37 10 -79 16 -93 13 -36 34
-34 26 2 -4 15 -9 43 -12 63 -6 34 -5 37 20 37 54 0 86 61 50 96 -22 22 -38
20 -74 -11z"/>
<path d="M742 4533 c-32 -28 -38 -67 -13 -92 44 -44 111 -16 111 47 0 53 -57
79 -98 45z"/>
<path d="M1095 4480 c-9 -14 3 -47 20 -53 7 -3 19 1 26 9 9 11 8 18 -6 34 -20
22 -31 25 -40 10z"/>
<path d="M4324 4369 c-10 -17 13 -36 27 -22 12 12 4 33 -11 33 -5 0 -12 -5
-16 -11z"/>
<path d="M549 4331 c-20 -20 -29 -39 -29 -61 0 -45 47 -90 93 -90 78 0 118
102 61 155 -38 35 -87 34 -125 -4z"/>
<path d="M2228 4015 c-2 -3 -1 -28 3 -57 11 -80 11 -158 -2 -158 -6 0 -74 -31
-152 -70 -77 -38 -142 -68 -144 -66 -1 1 3 16 9 33 10 26 9 35 -5 57 -10 14
-26 26 -37 26 -12 0 -28 13 -39 31 -19 30 -19 31 -30 10 -9 -17 -7 -29 9 -60
28 -56 26 -68 -19 -91 -47 -23 -77 -62 -86 -111 -6 -31 -14 -39 -61 -62 -30
-15 -56 -27 -58 -27 -3 0 1 13 6 28 9 23 6 50 -12 128 -30 133 -28 130 -89
126 l-51 -4 0 -104 0 -104 -32 -29 c-21 -19 -29 -33 -25 -45 11 -27 38 -32 57
-9 16 20 16 20 17 -12 1 -29 -4 -34 -55 -59 -33 -16 -58 -24 -60 -17 -8 24
-45 61 -61 61 -31 0 -71 -39 -71 -69 0 -15 5 -32 11 -38 13 -13 -13 -28 -153
-88 -49 -21 -88 -41 -88 -46 0 -18 19 -16 80 11 55 24 66 26 75 14 9 -12 47 3
239 96 126 61 230 109 232 108 1 -2 -6 -28 -16 -58 -21 -61 -25 -115 -10 -125
6 -4 10 8 10 28 0 77 11 89 147 156 69 34 135 63 146 64 17 2 26 -9 43 -53 35
-87 51 -50 19 43 l-13 39 150 73 c148 71 150 72 201 63 29 -5 69 -18 91 -29
21 -11 41 -17 44 -14 14 14 -41 48 -104 64 l-69 19 35 15 c182 80 255 117 255
128 0 8 -6 13 -12 12 -12 -3 -188 -80 -245 -108 -25 -12 -26 -11 -32 18 -3 17
-3 34 1 38 11 11 233 106 266 114 27 7 38 35 13 35 -7 0 -73 -25 -146 -55 -73
-30 -134 -54 -136 -52 -5 4 -22 151 -19 155 6 7 51 -21 88 -55 44 -39 63 -37
26 3 -44 49 -125 94 -141 79z m15 -259 c10 -25 -4 -54 -29 -60 -13 -4 -73 -29
-132 -56 -60 -28 -114 -50 -119 -50 -6 0 -13 9 -16 20 -5 18 13 30 136 90 78
37 145 69 148 69 4 1 9 -5 12 -13z m-673 -83 c6 -21 13 -57 16 -79 6 -37 4
-43 -15 -49 -12 -3 -35 -18 -51 -32 l-30 -25 0 111 0 111 35 0 c31 0 35 -3 45
-37z"/>
<path d="M3168 3990 c-2 -8 -45 -13 -118 -16 -193 -8 -355 -53 -355 -99 0 -14
8 -21 25 -23 20 -3 23 -1 13 9 -22 22 -15 27 51 48 76 23 153 37 256 46 l75 6
-62 -40 c-63 -41 -93 -81 -93 -125 0 -14 -4 -27 -9 -30 -4 -3 11 -26 35 -52
l43 -46 -21 -29 c-18 -24 -20 -32 -10 -54 24 -53 105 -52 118 1 9 36 -20 88
-63 115 -18 11 -33 24 -33 29 0 12 187 76 196 67 3 -3 11 -28 19 -56 15 -57
21 -47 -62 -98 -26 -15 -30 -31 -9 -39 14 -6 101 51 109 71 2 6 -15 80 -38
165 -38 140 -56 181 -67 150z m21 -90 c14 -67 14 -70 -6 -70 -10 -1 -57 -16
-105 -34 l-88 -33 0 27 c0 39 31 74 108 120 37 22 70 40 74 40 3 0 11 -23 17
-50z"/>
<path d="M2390 3977 c0 -14 58 -42 68 -32 9 8 -35 45 -54 45 -8 0 -14 -6 -14
-13z"/>
<path d="M2010 3950 c-22 -22 -25 -42 -10 -71 16 -28 61 -24 98 9 16 15 41 35
54 45 l23 18 -28 -6 c-16 -3 -39 1 -57 10 -39 20 -56 19 -80 -5z"/>
<path d="M3320 3816 c0 -2 7 -20 15 -39 23 -56 20 -92 -11 -105 -19 -9 -25
-18 -22 -39 5 -39 30 -51 63 -29 26 17 27 22 22 71 -6 59 -40 145 -56 145 -6
0 -11 -2 -11 -4z"/>
<path d="M3490 3795 c-18 -22 -3 -57 23 -53 37 5 33 67 -4 68 -4 0 -12 -7 -19
-15z"/>
<path d="M2497 3752 c-24 -27 -21 -59 8 -78 23 -15 27 -15 50 0 27 18 34 63
13 84 -18 18 -53 15 -71 -6z"/>
<path d="M30 3603 c-18 -16 -31 -36 -29 -45 3 -13 12 -10 42 19 26 23 36 38
29 45 -6 6 -21 0 -42 -19z"/>
<path d="M2830 3562 c0 -25 23 -44 44 -36 28 11 16 48 -16 52 -22 3 -28 -1
-28 -16z"/>
<path d="M4839 3213 c-5 -14 -8 -34 -7 -42 5 -23 33 -20 33 4 0 11 4 23 9 26
11 9 0 39 -14 39 -6 0 -15 -12 -21 -27z"/>
<path d="M517 3212 c-26 -29 -22 -78 9 -98 53 -35 111 20 88 84 -7 22 -16 28
-45 30 -24 2 -40 -3 -52 -16z"/>
<path d="M4948 3109 c-37 -21 -15 -99 28 -99 61 0 85 49 44 90 -22 22 -46 25
-72 9z"/>
<path d="M3969 2802 c-26 -22 -31 -75 -8 -97 26 -26 63 -28 92 -5 34 27 36 68
4 98 -28 27 -57 28 -88 4z"/>
<path d="M17 2749 c-13 -8 -17 -23 -17 -64 0 -51 2 -55 23 -55 46 0 98 60 97
112 -1 21 -2 20 -13 -6 l-13 -29 -17 26 c-19 29 -32 32 -60 16z"/>
<path d="M1264 2676 c-15 -12 -17 -18 -8 -33 14 -23 53 -23 67 -1 8 12 7 21
-2 32 -17 20 -32 20 -57 2z"/>
<path d="M225 2613 c13 -76 27 -84 45 -28 13 41 1 65 -32 65 -16 0 -18 -5 -13
-37z"/>
<path d="M4029 2630 c0 -8 0 -94 1 -192 1 -144 -1 -182 -15 -207 -14 -28 -14
-32 0 -37 24 -10 43 14 50 59 9 61 -11 367 -24 380 -8 8 -11 7 -12 -3z"/>
<path d="M88 2606 c-22 -16 -23 -25 -2 -40 22 -16 10 -95 -22 -141 -18 -28
-20 -35 -8 -35 31 0 62 49 69 110 7 61 20 75 45 46 16 -21 40 -9 40 20 0 25
-16 36 -75 48 -18 3 -37 0 -47 -8z"/>
<path d="M0 2437 c0 -30 4 -46 10 -42 13 8 13 55 0 75 -7 11 -10 2 -10 -33z"/>
<path d="M34 2335 c-8 -21 3 -34 26 -28 23 6 25 14 8 31 -16 16 -27 15 -34 -3z"/>
<path d="M5065 2264 c-115 -81 -152 -93 -318 -104 -74 -4 -134 -13 -142 -20
-10 -8 -15 -32 -15 -71 0 -52 -2 -59 -20 -59 -24 0 -28 -38 -5 -46 31 -12 45
15 45 86 0 82 -2 81 133 85 104 4 182 18 232 42 70 35 145 89 145 106 0 21 5
23 -55 -19z"/>
<path d="M5086 2214 c-36 -35 -27 -112 15 -135 18 -9 19 -5 19 71 0 81 -6 93
-34 64z"/>
<path d="M4104 2149 c-8 -14 11 -33 25 -25 6 4 11 14 11 22 0 16 -26 19 -36 3z"/>
<path d="M1064 2121 c-107 -49 -139 -194 -61 -271 l33 -32 -48 -99 c-50 -102
-56 -123 -36 -117 6 2 32 51 56 109 77 180 109 212 181 175 78 -41 151 5 151
94 0 122 -149 199 -276 141z"/>
<path d="M4664 2085 c-7 -18 3 -35 22 -35 20 0 30 30 13 41 -20 12 -29 11 -35
-6z"/>
<path d="M4730 2022 c-45 -44 -58 -95 -41 -151 23 -79 99 -157 163 -167 69
-12 138 81 124 167 -5 30 -3 39 8 39 15 0 26 -21 26 -51 0 -23 15 -25 24 -3
17 44 6 73 -45 121 -63 60 -110 82 -173 83 -43 0 -53 -4 -86 -38z m198 -128
c27 -19 32 -88 6 -98 -40 -15 -107 -1 -126 28 -38 57 59 113 120 70z"/>
<path d="M897 1933 c-15 -14 -7 -43 12 -43 26 0 36 17 21 35 -14 16 -23 19
-33 8z"/>
<path d="M2501 1901 c-19 -12 3 -51 29 -51 23 0 25 17 6 43 -15 19 -16 20 -35
8z"/>
<path d="M5022 1775 c-103 -99 -135 -149 -135 -210 0 -47 32 -115 68 -143 36
-28 87 -36 129 -18 l36 15 0 65 c0 37 -2 66 -5 66 -3 0 -23 -12 -44 -26 -22
-14 -50 -24 -63 -22 -19 2 -11 10 45 43 45 26 67 45 67 58 0 18 -2 17 -37 -4
-21 -12 -52 -33 -70 -46 -39 -28 -43 -29 -43 -2 0 34 19 62 86 124 l65 60 -3
65 -3 65 -93 -90z"/>
<path d="M3020 1748 c0 -13 -9 -61 -20 -107 -20 -81 -19 -121 1 -121 5 0 9 17
9 38 0 20 7 62 15 92 17 64 19 120 5 120 -5 0 -10 -10 -10 -22z"/>
<path d="M4526 1758 c-2 -7 -7 -76 -11 -153 -7 -165 -11 -185 -36 -185 -28 0
-59 -36 -59 -70 0 -56 74 -78 100 -29 6 10 14 71 19 134 5 64 11 119 14 121 3
3 15 0 27 -6 59 -32 88 -204 43 -252 -37 -39 -26 -81 15 -59 26 14 74 125 80
182 8 86 -23 142 -114 210 -47 34 -54 44 -54 74 0 34 -17 57 -24 33z"/>
<path d="M2694 1735 c-15 -23 -15 -27 3 -57 33 -56 116 -65 129 -14 18 73 -92
132 -132 71z"/>
<path d="M4562 1733 c5 -26 38 -29 38 -4 0 15 -6 21 -21 21 -14 0 -19 -5 -17
-17z"/>
<path d="M3345 1629 c-16 -5 -51 -11 -76 -14 l-47 -6 -6 -59 c-8 -73 -19 -80
-118 -84 l-71 -2 -18 -73 c-10 -39 -21 -77 -25 -83 -4 -6 -1 -9 7 -6 8 2 23
32 33 65 l20 61 75 10 c42 5 77 8 79 7 1 -1 -10 -35 -25 -76 -14 -41 -37 -108
-49 -149 l-22 -75 -11 42 c-7 24 -23 55 -36 70 -19 23 -27 26 -42 17 -11 -7
-19 -25 -21 -47 -3 -30 2 -39 31 -63 33 -26 34 -28 22 -58 -9 -20 -10 -37 -4
-48 15 -28 39 -22 39 9 0 15 9 36 20 48 11 11 41 89 68 173 27 83 52 155 56
159 4 4 4 0 0 -10 -8 -21 12 -47 37 -47 40 0 65 41 78 125 8 48 19 85 28 92
23 18 11 30 -22 22z m-15 -45 c0 -9 -5 -33 -11 -53 -8 -28 -19 -40 -50 -53
l-39 -17 0 27 c0 15 3 44 6 64 6 32 10 37 38 41 17 2 37 5 44 5 6 1 12 -5 12
-14z"/>
<path d="M2319 1598 c-12 -28 -22 -34 -83 -49 -102 -26 -147 -67 -115 -105 14
-17 69 -47 108 -59 39 -12 14 14 -33 34 -48 21 -69 42 -60 64 7 19 39 32 124
51 81 19 120 57 87 85 -11 8 -17 4 -28 -21z"/>
<path d="M795 1545 c-46 -45 -22 -115 39 -115 65 0 91 79 40 119 -34 27 -50
26 -79 -4z"/>
<path d="M2542 1549 c-91 -45 -123 -152 -73 -247 56 -108 161 -182 258 -182
113 0 183 79 183 208 0 57 -28 110 -90 165 -85 76 -193 98 -278 56z m124 -239
c31 -14 61 -21 86 -18 30 3 38 0 36 -12 -11 -54 -154 0 -213 80 -37 50 -30 60
10 13 19 -22 56 -50 81 -63z"/>
<path d="M0 1410 c0 -44 2 -80 5 -80 22 0 66 35 71 55 12 50 -17 105 -57 105
-17 0 -19 -8 -19 -80z"/>
<path d="M2243 1471 c-29 -24 -29 -35 1 -54 22 -15 24 -23 28 -129 6 -154 28
-193 138 -241 93 -42 156 -49 434 -50 l261 -2 52 27 c28 15 60 39 72 54 l20
26 27 -21 c33 -26 45 -26 78 0 33 26 35 75 5 113 -42 53 -118 23 -124 -49 -5
-51 -48 -89 -125 -112 -51 -15 -74 -15 -310 0 -262 17 -343 31 -414 70 -66 36
-78 69 -87 228 -9 169 -12 177 -56 140z"/>
<path d="M2961 1456 c-23 -36 -25 -46 -13 -46 5 0 18 18 31 40 27 48 11 54
-18 6z"/>
<path d="M4820 1481 c0 -17 50 -89 66 -95 22 -8 27 14 8 35 -9 10 -22 29 -28
41 -12 24 -46 37 -46 19z"/>
<path d="M620 1453 c1 -10 9 -43 20 -73 30 -86 28 -97 -27 -121 -73 -31 -95
-56 -91 -104 l3 -40 -89 -46 c-92 -48 -111 -65 -96 -89 8 -12 30 -5 125 43 63
31 118 57 121 57 16 0 -15 -23 -89 -66 -45 -26 -97 -56 -114 -66 l-33 -20 -10
27 c-12 31 -30 24 -30 -11 0 -21 -18 -33 -155 -101 l-155 -78 0 -42 c0 -24 3
-43 8 -43 4 0 30 16 59 35 39 26 54 31 61 22 10 -12 72 -181 72 -196 0 -12
-104 -85 -140 -97 -30 -10 -36 -19 -47 -60 -7 -27 -12 -58 -10 -69 2 -16 7
-12 22 17 22 45 31 48 37 10 6 -42 0 -56 -32 -77 -28 -18 -30 -25 -30 -79 l0
-60 25 34 25 34 0 -28 c0 -15 -10 -37 -25 -52 -19 -19 -25 -35 -25 -69 0 -39
3 -45 22 -45 19 0 78 53 78 71 0 3 16 33 35 65 21 35 35 71 35 91 0 42 -16 43
-25 0 -7 -31 -71 -157 -81 -157 -7 0 8 144 16 155 5 6 12 25 17 44 8 32 26 45
221 160 116 69 232 144 256 166 24 22 107 76 185 120 77 44 141 83 141 87 0
21 -27 11 -126 -45 -60 -35 -121 -71 -136 -81 -32 -21 -33 -20 -14 26 12 27
35 46 120 96 57 34 108 66 111 72 18 29 -13 18 -108 -39 -57 -33 -106 -61
-110 -61 -4 0 -7 6 -7 14 0 19 31 42 128 96 72 40 103 70 72 70 -15 0 -118
-53 -163 -84 -43 -30 -57 -32 -57 -11 0 21 -31 95 -40 95 -4 0 -10 -16 -13
-35 -6 -37 -91 -168 -143 -220 -17 -17 -63 -54 -102 -83 l-72 -52 -11 27 c-6
16 -23 63 -39 105 l-29 78 42 25 c38 23 43 24 52 8 35 -58 80 -69 120 -28 29
28 31 58 10 99 -8 15 -15 30 -15 31 0 2 42 26 93 54 87 46 299 190 340 230 14
13 16 26 11 64 -4 26 -12 55 -20 64 -13 18 -15 18 -86 -11 -12 -6 -18 0 -23
24 -8 37 -52 140 -60 140 -3 0 -5 -8 -5 -17z m160 -247 c-24 -22 -152 -96
-167 -96 -25 0 -12 10 80 59 98 54 110 59 87 37z m-196 -388 c3 -13 6 -26 6
-30 0 -3 -23 -20 -51 -38 -28 -17 -49 -27 -48 -23 9 20 75 113 80 113 4 0 9
-10 13 -22z m-34 -139 c-37 -44 -41 -53 -32 -74 10 -21 7 -26 -24 -44 l-36
-21 22 27 c18 23 20 36 15 70 -6 42 -6 43 41 73 26 16 50 28 52 25 3 -3 -14
-28 -38 -56z m-160 -88 c0 -13 -18 -29 -55 -50 -61 -35 -75 -38 -75 -17 0 13
103 85 123 86 4 0 7 -9 7 -19z m10 -70 c0 -11 -13 -21 -72 -55 -46 -26 -48
-26 -48 -7 0 14 15 28 48 45 50 26 72 32 72 17z m-174 -67 c10 -32 9 -37 -10
-49 -82 -51 -108 -66 -111 -63 -2 2 -6 19 -10 38 -6 34 -4 36 52 72 32 20 60
37 63 37 3 1 10 -15 16 -35z"/>
<path d="M4342 1417 c-22 -23 -29 -47 -14 -47 10 0 62 53 62 63 0 15 -28 6
-48 -16z"/>
<path d="M4936 1384 c-23 -36 -107 -101 -243 -185 -54 -33 -110 -69 -125 -80
-35 -25 -41 -24 -34 5 4 16 -1 32 -13 47 -34 42 -44 15 -39 -113 l4 -113 -28
-23 c-20 -17 -28 -33 -28 -55 0 -31 -4 -34 -129 -93 l-129 -62 -11 62 c-14 82
-14 86 7 86 25 0 55 34 50 57 -5 25 -40 28 -69 4 -23 -18 -24 -24 -22 -117 3
-82 0 -99 -15 -111 -28 -22 -176 -113 -183 -113 -4 0 -3 16 2 35 13 47 -4 108
-38 134 -92 74 -333 -55 -333 -177 0 -27 -44 -101 -69 -117 -6 -3 -20 -3 -31
0 -18 6 -19 12 -14 74 7 75 0 87 -41 77 -31 -8 -51 -42 -35 -61 6 -8 19 -11
27 -8 13 5 15 2 10 -11 -4 -10 -7 -24 -7 -32 0 -10 -14 -7 -55 13 -30 15 -55
33 -55 39 0 7 9 33 19 57 16 37 23 44 40 40 56 -15 134 45 111 86 -15 29 -29
26 -72 -16 -21 -20 -40 -34 -43 -31 -3 3 6 35 20 71 33 82 25 107 -33 107 -45
0 -78 -26 -86 -67 -30 -158 -31 -159 -57 -127 -56 67 -299 94 -464 50 -64 -17
-149 -58 -202 -99 -23 -18 -89 -68 -147 -113 -59 -44 -153 -107 -210 -139
-200 -112 -271 -178 -271 -255 0 -49 21 -110 38 -110 5 0 26 18 44 40 l35 40
18 -22 17 -22 29 28 c16 15 75 52 131 82 l101 54 10 -29 10 -29 -136 -68
c-104 -52 -131 -70 -112 -72 15 -2 74 20 143 53 64 30 121 55 126 55 5 0 70
29 146 65 75 36 149 65 163 65 15 1 79 27 142 60 l115 59 24 -23 c19 -19 21
-27 12 -44 -13 -24 -89 -81 -149 -111 l-43 -22 -26 21 c-31 24 -51 25 -81 4
-15 -10 -22 -25 -22 -49 0 -33 -3 -35 -86 -75 -99 -46 -114 -48 -132 -20 -15
25 -54 26 -75 2 -33 -36 -22 -42 73 -42 86 0 95 2 170 40 43 22 86 37 95 34
25 -10 65 5 76 29 5 12 38 37 73 55 148 77 203 160 161 242 -14 27 -14 30 5
40 12 6 40 10 63 8 33 -2 44 -8 56 -30 14 -24 13 -32 -2 -81 -31 -99 -139
-194 -325 -288 l-97 -48 142 -1 143 0 37 33 c21 18 76 63 123 99 47 36 111 93
143 127 32 34 64 61 70 61 21 0 117 -24 117 -30 0 -3 -46 -30 -102 -60 -108
-58 -250 -150 -308 -200 l-35 -29 72 -1 c59 0 90 7 164 34 50 19 93 37 97 40
18 18 -18 14 -104 -13 -54 -17 -100 -29 -102 -27 -1 2 25 15 60 29 253 101
352 143 417 177 70 37 91 41 91 20 0 -11 -220 -136 -313 -178 -63 -29 -81 -52
-39 -52 28 0 290 94 402 145 58 25 119 53 137 61 18 8 34 10 38 5 7 -12 -198
-140 -312 -194 -79 -38 -85 -42 -57 -45 30 -3 155 38 180 58 8 8 13 4 18 -15
4 -14 10 -25 15 -25 5 0 55 25 112 55 111 60 120 62 139 41 9 -12 4 -20 -31
-42 -24 -15 -66 -37 -93 -50 l-51 -24 166 0 165 0 27 57 c38 84 41 101 23 128
-9 14 -21 25 -26 25 -5 0 -40 -21 -77 -46 l-68 -47 -3 32 c-3 24 5 41 33 75
19 24 42 68 51 97 23 77 65 111 255 206 121 61 181 97 227 139 65 58 89 66 54
17 -47 -65 -99 -101 -265 -183 -169 -84 -172 -86 -196 -133 -21 -42 -22 -53
-13 -86 15 -50 46 -65 115 -58 106 11 244 99 363 233 58 65 70 74 72 55 6 -38
-45 -130 -106 -191 -56 -56 -192 -152 -232 -165 -17 -5 -30 -35 -16 -35 16 0
107 47 159 82 134 91 215 204 238 333 20 114 105 208 257 284 55 28 62 35 62
61 0 17 -2 30 -5 30 -12 0 -114 -55 -175 -95 -36 -23 -117 -95 -180 -160 -85
-86 -144 -136 -225 -189 -139 -91 -224 -140 -233 -132 -10 11 27 39 152 116
142 87 241 177 284 257 17 32 47 74 67 93 68 65 76 81 60 126 -19 52 -18 89 1
154 13 44 31 69 90 130 41 42 74 79 74 83 0 17 -27 4 -61 -29 l-37 -36 14 68
c8 38 13 80 12 94 l-4 25 -18 -31z m-61 -204 c-43 -91 -47 -108 -52 -197 -6
-97 -17 -138 -47 -162 -14 -12 -16 -6 -16 52 0 36 -5 78 -10 93 -9 22 -7 31
10 49 26 27 36 85 20 114 -9 17 -19 21 -43 19 -29 -3 -32 -6 -35 -40 -3 -32 1
-40 23 -50 l25 -11 -22 -25 c-39 -41 -57 -46 -81 -24 -12 11 -41 32 -65 45
l-44 25 87 53 c47 30 132 84 188 120 71 47 103 63 105 53 2 -8 -17 -59 -43
-114z m-292 -175 c20 -14 37 -29 37 -34 0 -11 -79 -63 -88 -57 -9 5 -3 116 7
116 3 0 23 -11 44 -25z m103 -90 c3 -19 12 -39 20 -46 8 -6 14 -26 14 -44 0
-27 -8 -40 -47 -73 -27 -21 -61 -47 -78 -58 l-29 -19 17 25 c30 44 19 95 -31
137 l-27 23 25 17 c78 57 116 80 122 77 4 -3 10 -20 14 -39z m-244 -152 c3
-21 7 -44 9 -52 3 -10 -30 -29 -110 -62 -63 -27 -162 -77 -220 -111 -59 -34
-149 -84 -201 -111 -95 -48 -95 -48 -168 -42 -84 8 -219 38 -234 53 -6 6 1 17
22 32 28 20 34 21 63 9 18 -8 64 -14 103 -14 79 0 133 23 314 131 126 75 383
203 411 204 4 0 9 -17 11 -37z m-572 -38 c42 -22 37 -38 -19 -68 -57 -31 -224
-97 -246 -97 -43 0 11 87 81 131 37 23 106 47 137 48 10 1 31 -6 47 -14z
m-828 -66 c22 -12 19 -13 -41 -27 -43 -9 -137 -52 -280 -125 -119 -61 -258
-131 -308 -156 -81 -40 -93 -50 -99 -77 -6 -33 -7 -34 -143 -111 -64 -37 -97
-51 -104 -44 -6 6 -13 38 -15 70 l-4 60 63 41 c44 28 70 38 84 34 75 -24 82
-21 250 92 88 59 162 108 164 110 1 2 1 8 -1 14 -3 9 -153 -87 -277 -178 -29
-21 -56 -32 -77 -32 -70 0 -68 2 215 193 67 45 110 65 199 93 201 63 313 76
374 43z m1493 2 c-14 -23 -148 -102 -230 -136 -125 -52 -171 -76 -240 -128
-49 -38 -63 -43 -83 -36 -13 5 -44 9 -70 9 l-47 1 73 24 c42 15 106 48 150 79
88 62 213 126 322 167 75 28 136 38 125 20z m-643 -64 c-27 -61 -98 -97 -191
-97 -60 0 -103 12 -91 23 3 3 50 22 105 42 55 21 120 48 145 60 25 13 47 22
48 20 2 -2 -5 -23 -16 -48z m-789 -78 c53 -14 52 -43 -2 -34 -25 4 -63 1 -101
-9 -49 -13 -65 -13 -81 -3 -18 11 -24 8 -51 -22 -22 -25 -29 -41 -26 -62 3
-18 1 -26 -6 -22 -20 12 -96 88 -96 96 0 4 20 17 45 28 75 33 245 48 318 28z
m165 -99 l62 -44 -25 -23 c-14 -13 -25 -30 -25 -38 0 -16 -98 -107 -195 -179
-134 -101 -161 -101 -74 -1 89 101 137 180 162 263 11 40 24 71 27 70 3 -2 33
-23 68 -48z m-616 -82 c-13 -13 -28 -31 -35 -40 -13 -18 -229 -140 -236 -133
-8 8 32 46 96 92 117 83 231 136 175 81z m1396 -10 c-3 -7 -13 -15 -24 -17
-16 -3 -17 -1 -5 13 16 19 34 21 29 4z m-2043 -163 c-1 -57 -5 -69 -30 -95
-27 -29 -31 -30 -42 -14 -26 36 -16 81 28 129 23 25 43 45 44 45 1 0 1 -29 0
-65z m2185 -62 c0 -18 -146 -97 -154 -84 -4 5 27 27 66 50 75 41 88 46 88 34z"/>
<path d="M3998 1369 c-22 -13 -23 -48 -2 -56 27 -10 66 14 62 40 -3 25 -33 33
-60 16z"/>
<path d="M4573 1358 c-11 -13 -29 -36 -39 -53 -10 -16 -29 -39 -42 -51 -14
-11 -23 -27 -20 -35 5 -15 58 35 106 100 13 17 30 31 39 31 18 0 12 24 -8 28
-8 1 -24 -8 -36 -20z"/>
<path d="M1606 1351 c-4 -5 3 -33 15 -63 55 -136 89 -235 89 -255 0 -16 -10
-27 -32 -36 -42 -18 -60 -40 -60 -73 0 -33 14 -46 48 -46 35 0 64 34 64 76 0
18 5 37 10 42 12 12 -12 96 -72 251 -39 102 -51 122 -62 104z"/>
<path d="M56 1305 c-20 -30 -12 -96 14 -120 17 -15 21 -15 49 -1 51 27 66 80
35 124 -22 32 -76 30 -98 -3z"/>
<path d="M4270 1234 c-58 -25 -126 -54 -152 -64 l-48 -20 -19 38 c-20 39 -27
34 -33 -23 -3 -26 -10 -33 -63 -54 l-59 -23 -26 29 c-14 17 -37 44 -52 62 -17
20 -32 29 -42 25 -24 -9 -19 -45 14 -88 17 -22 27 -43 22 -48 -11 -11 -681
-174 -879 -214 -95 -18 -195 -42 -223 -53 -57 -22 -62 -16 -22 21 50 46 76 57
172 68 123 15 369 67 440 92 62 23 114 59 131 89 19 36 1 33 -45 -8 -52 -46
-116 -69 -306 -109 -110 -23 -156 -27 -395 -33 l-270 -6 -47 -27 c-86 -51
-110 -101 -84 -176 35 -99 35 -98 16 -130 -22 -36 -94 -87 -151 -107 -53 -19
-56 -19 -64 6 -8 24 -30 20 -30 -7 0 -16 -7 -19 -44 -16 -24 1 -52 7 -62 13
-15 7 -19 6 -19 -5 0 -18 72 -40 109 -33 16 3 34 -2 49 -14 27 -21 50 -16 31
7 -9 11 -8 14 8 14 40 0 125 53 175 110 55 63 77 74 113 58 21 -9 34 -4 102
40 136 87 224 116 468 157 77 13 248 51 380 84 132 34 243 61 247 61 4 0 -4
-11 -17 -25 -30 -30 -31 -54 -4 -89 14 -17 30 -26 50 -26 86 0 94 137 8 141
-20 1 -21 2 -4 6 11 3 69 18 128 35 l109 31 71 -71 c81 -78 106 -91 129 -65
17 20 41 90 58 167 12 55 6 49 148 146 141 98 138 102 -18 34z m-297 -189
c-18 -25 -43 -29 -50 -8 -2 6 9 16 24 21 42 16 45 14 26 -13z m-1547 -218
c-16 -12 -48 -36 -70 -53 -24 -18 -40 -37 -38 -47 2 -9 -2 -17 -8 -17 -42 0
35 96 100 124 47 20 50 19 16 -7z m214 16 c0 -8 -15 -19 -137 -96 -94 -60
-133 -80 -141 -72 -10 10 94 98 163 139 54 33 115 48 115 29z"/>
<path d="M3425 1250 c-8 -13 3 -30 20 -30 14 0 27 24 18 34 -10 9 -31 7 -38
-4z"/>
<path d="M4315 1145 c-14 -13 -25 -33 -25 -45 0 -44 56 -140 82 -140 4 0 8 36
8 80 0 67 3 80 16 80 19 0 74 31 74 42 0 16 -37 7 -55 -12 l-18 -20 -22 20
c-27 25 -31 25 -60 -5z m45 -76 c0 -63 -9 -69 -30 -19 -14 35 -6 80 15 80 12
0 15 -14 15 -61z"/>
<path d="M4972 1023 c-35 -30 -38 -68 -8 -97 32 -33 60 -33 91 -1 30 30 31 54
4 89 -24 30 -58 34 -87 9z"/>
<path d="M200 971 c-53 -21 -119 -50 -148 -65 -48 -24 -52 -29 -52 -62 0 -20
4 -34 9 -32 40 15 251 140 280 165 48 43 27 41 -89 -6z"/>
<path d="M758 979 c-10 -6 -18 -14 -18 -19 0 -13 21 -12 40 0 22 14 0 32 -22
19z"/>
<path d="M2126 964 c-49 -18 -166 -95 -332 -220 -193 -146 -266 -207 -407
-342 -135 -129 -215 -187 -334 -242 -68 -31 -101 -60 -50 -44 105 32 253 122
332 203 176 180 557 479 709 556 67 34 104 47 140 48 46 2 49 0 60 -30 15 -42
23 -48 41 -33 24 20 18 59 -14 91 -34 33 -79 37 -145 13z"/>
<path d="M1808 949 c-45 -26 5 -104 50 -80 26 14 33 45 15 70 -15 23 -38 26
-65 10z"/>
<path d="M1645 788 c-33 -57 -227 -249 -277 -274 -26 -13 -49 -28 -53 -34 -11
-17 19 -11 72 16 94 46 338 324 285 324 -4 0 -16 -15 -27 -32z"/>
<path d="M1340 803 c0 -8 40 -38 103 -78 51 -33 27 0 -32 43 -59 42 -71 48
-71 35z"/>
<path d="M5065 774 c-86 -57 -147 -109 -161 -136 -8 -15 -10 -28 -5 -28 5 0
56 26 113 59 99 56 103 60 106 95 2 20 -1 36 -5 36 -5 0 -26 -12 -48 -26z"/>
<path d="M1910 762 c-53 -53 -31 -124 57 -186 58 -40 134 -43 164 -6 54 69
-36 205 -144 217 -41 5 -49 2 -77 -25z"/>
<path d="M2100 762 c0 -4 16 -14 35 -20 18 -7 45 -27 60 -43 25 -30 37 -18 13
13 -27 34 -108 72 -108 50z"/>
<path d="M3950 756 c-16 -20 -9 -56 13 -70 15 -9 22 -7 38 13 23 28 24 35 3
55 -19 20 -38 20 -54 2z"/>
<path d="M1306 744 c-34 -34 -8 -82 39 -70 20 5 25 13 25 36 0 19 -7 33 -19
40 -25 13 -27 13 -45 -6z"/>
<path d="M1005 681 c-8 -15 3 -31 21 -31 9 0 14 7 12 17 -4 20 -24 28 -33 14z"/>
<path d="M920 642 c0 -10 43 -52 54 -52 10 0 -36 59 -46 59 -5 1 -8 -3 -8 -7z"/>
<path d="M1182 574 c-30 -36 -30 -36 -61 -20 -55 29 -191 33 -191 7 0 -5 24
-23 54 -40 30 -16 57 -34 60 -40 3 -5 -22 -36 -56 -69 -62 -60 -62 -61 -44
-81 11 -12 24 -21 30 -21 7 0 36 25 66 55 60 60 84 70 74 30 -9 -36 5 -31 46
17 29 33 39 39 54 31 15 -8 7 -19 -65 -83 -72 -63 -147 -109 -222 -134 -10 -3
-15 -11 -12 -17 18 -28 169 40 304 138 52 37 96 73 98 78 2 6 -3 20 -11 30
-13 18 -18 19 -47 8 -27 -11 -36 -10 -47 1 -12 12 -9 20 17 56 23 32 28 47 21
60 -17 33 -38 31 -68 -6z"/>
<path d="M70 580 c0 -13 7 -20 20 -20 13 0 20 7 20 20 0 13 -7 20 -20 20 -13
0 -20 -7 -20 -20z"/>
<path d="M634 526 c-67 -31 -106 -82 -112 -145 -6 -63 12 -114 51 -147 28 -24
37 -26 93 -21 123 9 214 84 221 180 10 129 -118 196 -253 133z m209 -108 c16
-32 17 -43 7 -73 -15 -46 -30 -54 -24 -13 4 24 -2 47 -20 81 l-26 48 22 -3
c15 -2 30 -16 41 -40z"/>
<path d="M1593 490 c-54 -24 -139 -103 -164 -152 -50 -99 -2 -238 82 -238 36
0 40 16 18 73 -24 60 -24 71 2 124 26 54 81 93 129 93 67 0 119 -82 99 -154
-14 -52 -49 -87 -126 -129 -37 -21 -86 -53 -108 -72 l-40 -34 96 -1 c91 0 98
1 138 30 l42 31 10 -31 c15 -41 33 -27 26 21 -4 28 1 46 17 71 79 118 73 251
-15 335 -60 57 -130 68 -206 33z"/>
<path d="M5088 482 c-23 -13 -28 -24 -28 -55 0 -101 -94 -179 -405 -339 -155
-80 -167 -87 -131 -88 78 0 468 232 533 317 14 18 27 51 30 73 4 29 10 40 19
36 10 -4 14 5 14 34 0 22 -1 40 -2 40 -2 0 -15 -8 -30 -18z"/>
<path d="M4930 474 c0 -38 -57 -129 -116 -184 -68 -63 -212 -157 -311 -202
-61 -27 -70 -39 -57 -72 8 -21 21 -20 26 2 3 9 45 39 94 66 239 130 366 251
390 374 5 25 3 32 -10 32 -9 0 -16 -7 -16 -16z"/>
<path d="M281 314 c-12 -15 -21 -34 -21 -44 0 -10 9 -29 21 -44 55 -71 155 18
103 92 -22 32 -76 30 -103 -4z"/>
<path d="M5085 250 c-40 -42 -151 -117 -283 -191 l-107 -59 54 0 c47 0 69 9
204 81 84 44 156 84 160 88 5 5 7 32 5 60 l-3 52 -30 -31z"/>
<path d="M456 234 c-22 -22 -20 -55 4 -61 11 -3 20 -9 20 -13 0 -10 -94 -90
-147 -125 -24 -15 -43 -29 -43 -31 0 -2 38 -4 85 -4 l86 0 -15 28 c-14 26 -13
28 41 84 59 63 63 85 21 121 -25 21 -32 21 -52 1z"/>
<path d="M354 155 c-4 -9 -2 -21 4 -27 15 -15 44 -1 40 19 -4 23 -36 29 -44 8z"/>
<path d="M769 152 c-26 -22 -31 -75 -8 -97 44 -43 119 -13 119 49 0 60 -62 87
-111 48z"/>
<path d="M5021 67 l-94 -62 64 -3 c46 -3 73 1 97 14 29 16 32 21 32 66 0 26
-1 48 -2 47 -2 0 -45 -28 -97 -62z"/>
<path d="M4346 98 c-27 -39 -13 -98 23 -98 14 0 20 10 25 43 11 73 -15 102
-48 55z"/>
<path d="M152 61 c-16 -10 -5 -41 14 -41 15 0 20 35 6 44 -4 2 -14 1 -20 -3z"/>
<path d="M1248 20 l-23 -19 42 -1 c33 0 41 3 37 14 -9 24 -32 26 -56 6z"/>
</g>
</svg>